<svg width="278" height="67" viewBox="0 0 278 67" fill="none" xmlns="http://www.w3.org/2000/svg">
<path d="M13.2979 15.1367C11.8441 15.1367 10.7321 14.6969 9.96191 13.8174C9.19173 12.9378 8.80664 11.6709 8.80664 10.0166C8.80664 9.99382 8.80664 9.97103 8.80664 9.94824C8.80664 8.94564 8.99577 8.05697 9.37402 7.28223C9.75228 6.50293 10.2923 5.90592 10.9941 5.49121C11.696 5.07194 12.5003 4.8623 13.4072 4.8623C13.4391 4.8623 13.4688 4.8623 13.4961 4.8623C14.4759 4.8623 15.4512 5.09701 16.4219 5.56641L15.7383 7.28906C14.8132 6.84701 14.0658 6.62598 13.4961 6.62598C12.6986 6.62598 12.0811 6.92676 11.6436 7.52832C11.2061 8.12533 10.9873 8.95931 10.9873 10.0303C10.9873 12.2588 11.8236 13.373 13.4961 13.373C14.1934 13.373 15.0433 13.1976 16.0459 12.8467V14.624C15.2256 14.9658 14.3096 15.1367 13.2979 15.1367ZM21.3369 7.21387C22.0387 7.21387 22.6654 7.37337 23.2168 7.69238C23.7728 8.00684 24.2012 8.46257 24.502 9.05957C24.8073 9.65202 24.96 10.3311 24.96 11.0967C24.96 11.1195 24.96 11.1423 24.96 11.165C24.96 12.4092 24.6318 13.3822 23.9756 14.084C23.3193 14.7858 22.4056 15.1367 21.2344 15.1367C21.2161 15.1367 21.1956 15.1367 21.1729 15.1367C20.471 15.1367 19.8421 14.9772 19.2861 14.6582C18.7347 14.3346 18.3063 13.8743 18.001 13.2773C17.7002 12.6803 17.5498 11.999 17.5498 11.2334C17.5498 11.2106 17.5498 11.1878 17.5498 11.165C17.5498 9.91634 17.8757 8.94792 18.5273 8.25977C19.179 7.5625 20.0951 7.21387 21.2754 7.21387C21.2936 7.21387 21.3141 7.21387 21.3369 7.21387ZM22.4512 9.45605C22.2005 9.08236 21.7995 8.89551 21.248 8.89551C20.6966 8.89551 20.2956 9.08008 20.0449 9.44922C19.7988 9.81836 19.6758 10.3903 19.6758 11.165C19.6758 11.9352 19.8011 12.5117 20.0518 12.8945C20.307 13.2728 20.708 13.4619 21.2549 13.4619C21.8063 13.4619 22.2051 13.2728 22.4512 12.8945C22.7018 12.5163 22.8271 11.9421 22.8271 11.1719C22.8271 10.3971 22.7018 9.8252 22.4512 9.45605ZM31.0303 7.21387C31.9144 7.21387 32.5866 7.4554 33.0469 7.93848C33.5117 8.41699 33.7441 9.1097 33.7441 10.0166V15H31.6592V10.5361C31.6592 9.98014 31.5589 9.56543 31.3584 9.29199C31.1624 9.01855 30.8525 8.88184 30.4287 8.88184C29.8454 8.88184 29.4238 9.0778 29.1641 9.46973C28.9043 9.86165 28.7744 10.5065 28.7744 11.4043V15H26.6895V7.35742H28.2822L28.5625 8.3418H28.6787C28.9066 7.97266 29.2233 7.69238 29.6289 7.50098C30.0391 7.30957 30.5062 7.21387 31.0303 7.21387ZM36.2256 6.79688C36.2256 5.92188 36.4398 5.28613 36.8682 4.88965C37.2965 4.48861 37.9824 4.28809 38.9258 4.28809C39.6413 4.28809 40.2816 4.39518 40.8467 4.60938L40.3135 6.14062C39.8896 6.00846 39.5182 5.94238 39.1992 5.94238C38.8802 5.94238 38.6523 6.02669 38.5156 6.19531C38.3789 6.36393 38.3105 6.5918 38.3105 6.87891V7.35742H40.1152V8.92285H38.3105V15H36.2256V8.92285H35.0771V7.91797L36.2256 7.35742V6.79688ZM41.2295 5.38867C41.2295 4.70508 41.6077 4.36328 42.3643 4.36328C43.1208 4.36328 43.499 4.7028 43.499 5.38184C43.499 5.70996 43.4033 5.96289 43.2119 6.14062C43.0205 6.31836 42.738 6.40723 42.3643 6.40723C41.6077 6.40723 41.2295 6.06771 41.2295 5.38867ZM43.4033 15H41.3184V7.35742H43.4033V15ZM49.8633 7.21387C50.1504 7.21387 50.3851 7.23438 50.5674 7.27539L50.4102 9.23047C50.2461 9.1849 50.041 9.16211 49.7949 9.16211C49.1296 9.16211 48.61 9.33301 48.2363 9.6748C47.8672 10.0166 47.6826 10.4951 47.6826 11.1104V15H45.5977V7.35742H47.1768L47.4844 8.64258H47.5869C47.833 8.20508 48.152 7.861 48.5439 7.61035C48.945 7.34603 49.3848 7.21387 49.8633 7.21387ZM60.9307 7.21387C61.8102 7.21387 62.4688 7.43945 62.9062 7.89062C63.3438 8.3418 63.5625 9.05046 63.5625 10.0166V15H61.4707V10.5361C61.4707 9.98014 61.3773 9.56543 61.1904 9.29199C61.0036 9.01855 60.7142 8.88184 60.3223 8.88184C59.8073 8.88184 59.4245 9.06641 59.1738 9.43555C58.9232 9.80469 58.7979 10.3812 58.7979 11.165V15H56.7129V10.5361C56.7129 9.98014 56.6195 9.56543 56.4326 9.29199C56.2458 9.01855 55.9564 8.88184 55.5645 8.88184C55.0312 8.88184 54.6439 9.0778 54.4023 9.46973C54.1608 9.86165 54.04 10.5065 54.04 11.4043V15H51.9551V7.35742H53.5479L53.8281 8.3418H53.9443C54.1494 7.98633 54.4456 7.71061 54.833 7.51465C55.2204 7.31413 55.6647 7.21387 56.166 7.21387C57.3145 7.21387 58.0892 7.58984 58.4902 8.3418H58.6748C58.8799 7.98633 59.1807 7.71061 59.5771 7.51465C59.9736 7.31413 60.4248 7.21387 60.9307 7.21387ZM65.9141 7.89062C66.7982 7.43034 67.7666 7.2002 68.8193 7.2002C69.8721 7.2002 70.6673 7.42578 71.2051 7.87695C71.7474 8.32812 72.0186 9.00488 72.0186 9.90723V15H70.5625L70.1592 13.9609H70.1045C69.7536 14.4076 69.3936 14.7152 69.0244 14.8838C68.6553 15.0524 68.1699 15.1367 67.5684 15.1367C66.8392 15.1367 66.2604 14.9271 65.832 14.5078C65.4128 14.0885 65.2031 13.4847 65.2031 12.6963C65.2031 11.9079 65.4834 11.32 66.0439 10.9326C66.6045 10.5407 67.4635 10.3242 68.6211 10.2832L69.9473 10.2422V9.90723C69.9473 9.13249 69.5508 8.74512 68.7578 8.74512C68.1471 8.74512 67.4294 8.92969 66.6045 9.29883L65.9141 7.89062ZM67.3428 12.7305C67.3428 13.3184 67.68 13.6123 68.3545 13.6123C68.8421 13.6123 69.2295 13.4733 69.5166 13.1953C69.8037 12.9173 69.9473 12.5482 69.9473 12.0879V11.459L69.1406 11.4863C68.5345 11.5046 68.0833 11.6139 67.7871 11.8145C67.4909 12.015 67.3428 12.3203 67.3428 12.7305ZM76.4824 7.35742H78.6221V8.92285H76.4824V12.6074C76.4824 12.8945 76.5622 13.111 76.7217 13.2568C76.8857 13.4027 77.1273 13.4756 77.4463 13.4756C77.7653 13.4756 78.1846 13.3958 78.7041 13.2363V14.7881C78.1846 15.0205 77.5283 15.1367 76.7354 15.1367C75.9469 15.1367 75.359 14.9294 74.9717 14.5146C74.5889 14.0954 74.3975 13.4596 74.3975 12.6074V8.92285H73.3994V8.04102L74.5479 7.34375L75.1494 5.73047H76.4824V7.35742ZM80.167 5.38867C80.167 4.70508 80.5452 4.36328 81.3018 4.36328C82.0583 4.36328 82.4365 4.7028 82.4365 5.38184C82.4365 5.70996 82.3408 5.96289 82.1494 6.14062C81.958 6.31836 81.6755 6.40723 81.3018 6.40723C80.5452 6.40723 80.167 6.06771 80.167 5.38867ZM82.3408 15H80.2559V7.35742H82.3408V15ZM87.8506 7.21387C88.5524 7.21387 89.179 7.37337 89.7305 7.69238C90.2865 8.00684 90.7148 8.46257 91.0156 9.05957C91.321 9.65202 91.4736 10.3311 91.4736 11.0967C91.4736 11.1195 91.4736 11.1423 91.4736 11.165C91.4736 12.4092 91.1455 13.3822 90.4893 14.084C89.833 14.7858 88.9193 15.1367 87.748 15.1367C87.7298 15.1367 87.7093 15.1367 87.6865 15.1367C86.9847 15.1367 86.3558 14.9772 85.7998 14.6582C85.2484 14.3346 84.82 13.8743 84.5146 13.2773C84.2139 12.6803 84.0635 11.999 84.0635 11.2334C84.0635 11.2106 84.0635 11.1878 84.0635 11.165C84.0635 9.91634 84.3893 8.94792 85.041 8.25977C85.6927 7.5625 86.6087 7.21387 87.7891 7.21387C87.8073 7.21387 87.8278 7.21387 87.8506 7.21387ZM88.9648 9.45605C88.7142 9.08236 88.3132 8.89551 87.7617 8.89551C87.2103 8.89551 86.8092 9.08008 86.5586 9.44922C86.3125 9.81836 86.1895 10.3903 86.1895 11.165C86.1895 11.9352 86.3148 12.5117 86.5654 12.8945C86.8206 13.2728 87.2217 13.4619 87.7686 13.4619C88.32 13.4619 88.7188 13.2728 88.9648 12.8945C89.2155 12.5163 89.3408 11.9421 89.3408 11.1719C89.3408 10.3971 89.2155 9.8252 88.9648 9.45605ZM97.5439 7.21387C98.4281 7.21387 99.1003 7.4554 99.5605 7.93848C100.025 8.41699 100.258 9.1097 100.258 10.0166V15H98.1729V10.5361C98.1729 9.98014 98.0726 9.56543 97.8721 9.29199C97.6761 9.01855 97.3662 8.88184 96.9424 8.88184C96.359 8.88184 95.9375 9.0778 95.6777 9.46973C95.418 9.86165 95.2881 10.5065 95.2881 11.4043V15H93.2031V7.35742H94.7959L95.0762 8.3418H95.1924C95.4202 7.97266 95.737 7.69238 96.1426 7.50098C96.5527 7.30957 97.0199 7.21387 97.5439 7.21387Z" fill="#1E1E1E"/>
<path d="M1.99268 49H1.07959V41.1475H1.99268V49ZM6.7998 43.0059C7.51595 43.0059 8.05127 43.1795 8.40576 43.5269C8.76025 43.8742 8.9375 44.4185 8.9375 45.1597V49H8.0459V45.1919C8.0459 44.7085 7.9349 44.3504 7.71289 44.1177C7.49447 43.8849 7.1543 43.7686 6.69238 43.7686C6.07292 43.7686 5.61995 43.9351 5.3335 44.2681C5.05062 44.6011 4.90918 45.1489 4.90918 45.9116V49H4.01758V43.1133H4.74268L4.8877 43.9189H4.93066C5.11328 43.6289 5.36751 43.4051 5.69336 43.2476C6.02279 43.0864 6.3916 43.0059 6.7998 43.0059ZM11.7305 43.1133H13.4385V43.8062H11.7305V47.2705C11.7305 47.6214 11.8128 47.8936 11.9775 48.0869C12.1458 48.2767 12.375 48.3716 12.665 48.3716C12.9551 48.3716 13.2272 48.3358 13.4814 48.2642V48.9517C13.3955 48.9946 13.2559 49.0304 13.0625 49.0591C12.8691 49.0913 12.6973 49.1074 12.5469 49.1074C11.4082 49.1074 10.8389 48.5076 10.8389 47.3081V43.8062H9.99561V43.3765L10.8389 43.0059L11.2148 41.749H11.7305V43.1133ZM17.3486 43.0059C17.6064 43.0059 17.841 43.0273 18.0522 43.0703L17.9287 43.8975C17.6852 43.8438 17.4704 43.8169 17.2842 43.8169C16.8044 43.8169 16.3962 44.0103 16.0596 44.397C15.723 44.7801 15.5547 45.2617 15.5547 45.8418V49H14.6631V43.1133H15.3989L15.501 44.2036H15.5439C15.7624 43.8169 16.0256 43.5215 16.3335 43.3174C16.645 43.1097 16.9834 43.0059 17.3486 43.0059ZM18.8203 46.0513C18.8203 45.0916 19.0584 44.3451 19.5347 43.8115C20.0145 43.2744 20.6733 43.0059 21.5112 43.0059C22.3527 43.0059 23.0133 43.2798 23.4932 43.8276C23.9837 44.3719 24.229 45.1185 24.229 46.0674C24.229 47.0163 23.9873 47.7611 23.5039 48.3018C23.0205 48.8389 22.3527 49.1074 21.5005 49.1074C21.4862 49.1074 21.4718 49.1074 21.4575 49.1074C20.6805 49.1074 20.0467 48.8317 19.5562 48.2803C19.0656 47.7288 18.8203 47.0109 18.8203 46.1265C18.8203 46.1014 18.8203 46.0763 18.8203 46.0513ZM21.5112 43.7686C20.3332 43.7686 19.7441 44.5295 19.7441 46.0513C19.7441 46.8032 19.8945 47.3761 20.1953 47.77C20.4997 48.1639 20.9419 48.3608 21.522 48.3608C22.1056 48.3608 22.5479 48.1657 22.8486 47.7754C23.153 47.3815 23.3052 46.8086 23.3052 46.0566C23.3052 45.3047 23.153 44.7354 22.8486 44.3486C22.5479 43.9619 22.1021 43.7686 21.5112 43.7686ZM30.6528 49H29.9277L29.8096 48.2104H29.7612C29.3459 48.8084 28.7407 49.1074 27.9458 49.1074C27.1545 49.1074 26.5439 48.8442 26.1143 48.3179C25.6882 47.7879 25.4751 47.0396 25.4751 46.0728C25.4751 45.1024 25.6899 44.3486 26.1196 43.8115C26.5493 43.2744 27.1545 43.0059 27.9351 43.0059C28.7192 43.0059 29.3244 43.2959 29.7505 43.876H29.8203L29.7827 43.4517L29.7612 43.0381V40.6426H30.6528V49ZM29.7612 46.2607V46.0728C29.7612 45.2384 29.6216 44.644 29.3423 44.2896C29.0737 43.9351 28.6315 43.7578 28.0156 43.7578C27.4928 43.7578 27.0918 43.9601 26.8125 44.3647C26.5368 44.7658 26.3989 45.3405 26.3989 46.0889C26.3989 46.8372 26.5368 47.403 26.8125 47.7861C27.0882 48.1693 27.4928 48.3608 28.0264 48.3608C28.6351 48.3608 29.0755 48.1961 29.3477 47.8667C29.6234 47.5337 29.7612 46.9984 29.7612 46.2607ZM37.4097 49H36.6738L36.5449 48.2104H36.4966C36.314 48.5005 36.0615 48.7225 35.7393 48.8765C35.417 49.0304 35.0464 49.1074 34.6274 49.1074C33.9006 49.1074 33.3617 48.9373 33.0107 48.5972C32.6598 48.2534 32.4844 47.7091 32.4844 46.9644V43.1133H33.3867V46.9321C33.3867 47.4155 33.4959 47.7754 33.7144 48.0117C33.9364 48.2445 34.2783 48.3608 34.7402 48.3608C35.3561 48.3608 35.8055 48.1925 36.0884 47.856C36.3748 47.5158 36.5181 46.9661 36.5181 46.207V43.1133H37.4097V49ZM43.0708 48.3071V49H38.8008V48.3931L42.0127 43.8062H38.9995V43.1133H42.9902V43.8062L39.8213 48.3071H43.0708ZM46.8037 49.1074C45.9515 49.1074 45.2909 48.846 44.8218 48.3232C44.3563 47.8005 44.1235 47.0521 44.1235 46.0781C44.1235 45.1042 44.3599 44.3486 44.8325 43.8115C45.3088 43.2744 45.9855 43.0059 46.8628 43.0059C47.1349 43.0059 47.4106 43.0363 47.6899 43.0972C47.9728 43.1545 48.202 43.2261 48.3774 43.312L48.1035 44.0693C47.903 43.9906 47.6917 43.9261 47.4697 43.876C47.2477 43.8258 47.0382 43.8008 46.8413 43.8008C45.6453 43.8008 45.0474 44.5617 45.0474 46.0835C45.0474 46.8104 45.1942 47.3672 45.4878 47.7539C45.7814 48.137 46.2129 48.3286 46.7822 48.3286C47.2692 48.3286 47.7723 48.223 48.2915 48.0117V48.8013C47.8905 49.0054 47.3945 49.1074 46.8037 49.1074ZM49.9028 43.5215C50.5187 43.1849 51.1812 43.0166 51.8901 43.0166C52.5991 43.0166 53.1201 43.1742 53.4531 43.4893C53.7897 43.8008 53.958 44.2985 53.958 44.9824V49H53.3027L53.1255 48.1621H53.0825C52.7889 48.5309 52.4953 48.7816 52.2017 48.9141C51.9116 49.043 51.5482 49.1074 51.1113 49.1074C50.5277 49.1074 50.0693 48.957 49.7363 48.6562C49.4033 48.3519 49.2368 47.924 49.2368 47.3726C49.2368 46.1873 50.1893 45.5643 52.0942 45.5034L53.0933 45.4712V45.106C53.0933 44.6405 52.993 44.3003 52.7925 44.0854C52.5955 43.867 52.2625 43.7578 51.7935 43.7578C51.3244 43.7578 50.7855 43.9064 50.1768 44.2036L49.9028 43.5215ZM50.1768 47.3833C50.1768 47.702 50.2734 47.9473 50.4668 48.1191C50.6602 48.2874 50.9341 48.3716 51.2886 48.3716C51.8436 48.3716 52.2786 48.2194 52.5938 47.915C52.9124 47.6071 53.0718 47.181 53.0718 46.6367V46.105L52.1802 46.1426C51.4712 46.1676 50.9591 46.2786 50.644 46.4756C50.3325 46.6689 50.1768 46.9715 50.1768 47.3833ZM59.5547 49H58.6631V40.6426H59.5547V49ZM61.1123 46.0513C61.1123 45.0916 61.3504 44.3451 61.8267 43.8115C62.3065 43.2744 62.9653 43.0059 63.8032 43.0059C64.6447 43.0059 65.3053 43.2798 65.7852 43.8276C66.2757 44.3719 66.521 45.1185 66.521 46.0674C66.521 47.0163 66.2793 47.7611 65.7959 48.3018C65.3125 48.8389 64.6447 49.1074 63.7925 49.1074C63.7782 49.1074 63.7638 49.1074 63.7495 49.1074C62.9725 49.1074 62.3387 48.8317 61.8481 48.2803C61.3576 47.7288 61.1123 47.0109 61.1123 46.1265C61.1123 46.1014 61.1123 46.0763 61.1123 46.0513ZM63.8032 43.7686C62.6252 43.7686 62.0361 44.5295 62.0361 46.0513C62.0361 46.8032 62.1865 47.3761 62.4873 47.77C62.7917 48.1639 63.2339 48.3608 63.814 48.3608C64.3976 48.3608 64.8398 48.1657 65.1406 47.7754C65.445 47.3815 65.5972 46.8086 65.5972 46.0566C65.5972 45.3047 65.445 44.7354 65.1406 44.3486C64.8398 43.9619 64.394 43.7686 63.8032 43.7686ZM69.5825 48.3716C70.5493 48.3716 71.0327 48.0708 71.0327 47.4692C71.0327 47.2401 70.9325 47.0449 70.7319 46.8838C70.535 46.7191 70.1483 46.5257 69.5718 46.3037C69.0203 46.0996 68.6283 45.9206 68.3955 45.7666C68.1663 45.6126 67.9963 45.4408 67.8853 45.251C67.7743 45.0612 67.7188 44.8302 67.7188 44.5581C67.7188 44.0819 67.9139 43.7041 68.3042 43.4248C68.6945 43.1455 69.2173 43.0059 69.8726 43.0059C70.5278 43.0059 71.1598 43.1348 71.7686 43.3926L71.4517 44.1177C70.8644 43.8778 70.3452 43.7578 69.894 43.7578C69.4465 43.7578 69.1134 43.8223 68.895 43.9512C68.6766 44.0801 68.5674 44.2627 68.5674 44.499C68.5674 44.6566 68.6068 44.7909 68.6855 44.9019C68.7643 45.0129 68.8932 45.1185 69.0723 45.2188C69.2513 45.319 69.5968 45.464 70.1089 45.6538C70.8071 45.908 71.278 46.1641 71.5215 46.4219C71.7686 46.6797 71.8921 47.0037 71.8921 47.394C71.8921 47.9419 71.6862 48.3644 71.2744 48.6616C70.8662 48.9588 70.2826 49.1074 69.5234 49.1074C68.7679 49.1074 68.1717 48.9839 67.7349 48.7368V47.9097C68.3436 48.2176 68.9595 48.3716 69.5825 48.3716ZM81.0444 49H80.3193L80.2012 48.2104H80.1528C79.7375 48.8084 79.1323 49.1074 78.3374 49.1074C77.5461 49.1074 76.9355 48.8442 76.5059 48.3179C76.0798 47.7879 75.8667 47.0396 75.8667 46.0728C75.8667 45.1024 76.0815 44.3486 76.5112 43.8115C76.9409 43.2744 77.5461 43.0059 78.3267 43.0059C79.1108 43.0059 79.716 43.2959 80.1421 43.876H80.2119L80.1743 43.4517L80.1528 43.0381V40.6426H81.0444V49ZM80.1528 46.2607V46.0728C80.1528 45.2384 80.0132 44.644 79.7339 44.2896C79.4653 43.9351 79.0231 43.7578 78.4072 43.7578C77.8844 43.7578 77.4834 43.9601 77.2041 44.3647C76.9284 44.7658 76.7905 45.3405 76.7905 46.0889C76.7905 46.8372 76.9284 47.403 77.2041 47.7861C77.4798 48.1693 77.8844 48.3608 78.418 48.3608C79.0267 48.3608 79.4671 48.1961 79.7393 47.8667C80.015 47.5337 80.1528 46.9984 80.1528 46.2607ZM83.1606 43.5215C83.7765 43.1849 84.439 43.0166 85.1479 43.0166C85.8569 43.0166 86.3779 43.1742 86.7109 43.4893C87.0475 43.8008 87.2158 44.2985 87.2158 44.9824V49H86.5605L86.3833 48.1621H86.3403C86.0467 48.5309 85.7531 48.7816 85.4595 48.9141C85.1694 49.043 84.806 49.1074 84.3691 49.1074C83.7855 49.1074 83.3271 48.957 82.9941 48.6562C82.6611 48.3519 82.4946 47.924 82.4946 47.3726C82.4946 46.1873 83.4471 45.5643 85.3521 45.5034L86.3511 45.4712V45.106C86.3511 44.6405 86.2508 44.3003 86.0503 44.0854C85.8534 43.867 85.5203 43.7578 85.0513 43.7578C84.5822 43.7578 84.0433 43.9064 83.4346 44.2036L83.1606 43.5215ZM83.4346 47.3833C83.4346 47.702 83.5312 47.9473 83.7246 48.1191C83.918 48.2874 84.1919 48.3716 84.5464 48.3716C85.1014 48.3716 85.5365 48.2194 85.8516 47.915C86.1702 47.6071 86.3296 47.181 86.3296 46.6367V46.105L85.438 46.1426C84.729 46.1676 84.217 46.2786 83.9019 46.4756C83.5903 46.6689 83.4346 46.9715 83.4346 47.3833ZM90.0195 43.1133H91.7275V43.8062H90.0195V47.2705C90.0195 47.6214 90.1019 47.8936 90.2666 48.0869C90.4349 48.2767 90.6641 48.3716 90.9541 48.3716C91.2441 48.3716 91.5163 48.3358 91.7705 48.2642V48.9517C91.6846 48.9946 91.5449 49.0304 91.3516 49.0591C91.1582 49.0913 90.9863 49.1074 90.8359 49.1074C89.6973 49.1074 89.1279 48.5076 89.1279 47.3081V43.8062H88.2847V43.3765L89.1279 43.0059L89.5039 41.749H90.0195V43.1133ZM92.6191 46.0513C92.6191 45.0916 92.8573 44.3451 93.3335 43.8115C93.8133 43.2744 94.4722 43.0059 95.3101 43.0059C96.1515 43.0059 96.8122 43.2798 97.292 43.8276C97.7826 44.3719 98.0278 45.1185 98.0278 46.0674C98.0278 47.0163 97.7861 47.7611 97.3027 48.3018C96.8193 48.8389 96.1515 49.1074 95.2993 49.1074C95.285 49.1074 95.2707 49.1074 95.2563 49.1074C94.4793 49.1074 93.8455 48.8317 93.355 48.2803C92.8644 47.7288 92.6191 47.0109 92.6191 46.1265C92.6191 46.1014 92.6191 46.0763 92.6191 46.0513ZM95.3101 43.7686C94.132 43.7686 93.543 44.5295 93.543 46.0513C93.543 46.8032 93.6934 47.3761 93.9941 47.77C94.2985 48.1639 94.7407 48.3608 95.3208 48.3608C95.9045 48.3608 96.3467 48.1657 96.6475 47.7754C96.9518 47.3815 97.104 46.8086 97.104 46.0566C97.104 45.3047 96.9518 44.7354 96.6475 44.3486C96.3467 43.9619 95.9009 43.7686 95.3101 43.7686ZM101.089 48.3716C102.056 48.3716 102.54 48.0708 102.54 47.4692C102.54 47.2401 102.439 47.0449 102.239 46.8838C102.042 46.7191 101.655 46.5257 101.079 46.3037C100.527 46.0996 100.135 45.9206 99.9023 45.7666C99.6732 45.6126 99.5031 45.4408 99.3921 45.251C99.2811 45.0612 99.2256 44.8302 99.2256 44.5581C99.2256 44.0819 99.4207 43.7041 99.811 43.4248C100.201 43.1455 100.724 43.0059 101.379 43.0059C102.035 43.0059 102.667 43.1348 103.275 43.3926L102.958 44.1177C102.371 43.8778 101.852 43.7578 101.401 43.7578C100.953 43.7578 100.62 43.8223 100.402 43.9512C100.183 44.0801 100.074 44.2627 100.074 44.499C100.074 44.6566 100.114 44.7909 100.192 44.9019C100.271 45.0129 100.4 45.1185 100.579 45.2188C100.758 45.319 101.104 45.464 101.616 45.6538C102.314 45.908 102.785 46.1641 103.028 46.4219C103.275 46.6797 103.399 47.0037 103.399 47.394C103.399 47.9419 103.193 48.3644 102.781 48.6616C102.373 48.9588 101.789 49.1074 101.03 49.1074C100.275 49.1074 99.6785 48.9839 99.2417 48.7368V47.9097C99.8504 48.2176 100.466 48.3716 101.089 48.3716ZM112.551 49H111.826L111.708 48.2104H111.66C111.244 48.8084 110.639 49.1074 109.844 49.1074C109.053 49.1074 108.442 48.8442 108.013 48.3179C107.587 47.7879 107.374 47.0396 107.374 46.0728C107.374 45.1024 107.588 44.3486 108.018 43.8115C108.448 43.2744 109.053 43.0059 109.833 43.0059C110.618 43.0059 111.223 43.2959 111.649 43.876H111.719L111.681 43.4517L111.66 43.0381V40.6426H112.551V49ZM111.66 46.2607V46.0728C111.66 45.2384 111.52 44.644 111.241 44.2896C110.972 43.9351 110.53 43.7578 109.914 43.7578C109.391 43.7578 108.99 43.9601 108.711 44.3647C108.435 44.7658 108.297 45.3405 108.297 46.0889C108.297 46.8372 108.435 47.403 108.711 47.7861C108.987 48.1693 109.391 48.3608 109.925 48.3608C110.534 48.3608 110.974 48.1961 111.246 47.8667C111.522 47.5337 111.66 46.9984 111.66 46.2607ZM116.934 49.1074C116.064 49.1074 115.376 48.8424 114.872 48.3125C114.37 47.779 114.12 47.0396 114.12 46.0942C114.12 45.1489 114.352 44.3988 114.818 43.8438C115.287 43.2852 115.903 43.0059 116.666 43.0059C117.432 43.0059 118.028 43.2511 118.454 43.7417C118.884 44.2179 119.099 44.8553 119.099 45.6538V46.2178H115.043C115.061 46.9053 115.235 47.4299 115.564 47.7915C115.894 48.1496 116.368 48.3286 116.988 48.3286C117.607 48.3286 118.225 48.1961 118.841 47.9312V48.7261C118.529 48.8621 118.23 48.9588 117.944 49.0161C117.661 49.077 117.324 49.1074 116.934 49.1074ZM118.143 45.4927C118.143 44.9341 118.017 44.5062 117.767 44.209C117.516 43.9082 117.156 43.7578 116.687 43.7578C116.222 43.7578 115.847 43.91 115.564 44.2144C115.282 44.5187 115.115 44.9448 115.065 45.4927H118.143ZM124.969 48.3716C125.936 48.3716 126.419 48.0708 126.419 47.4692C126.419 47.2401 126.319 47.0449 126.119 46.8838C125.922 46.7191 125.535 46.5257 124.958 46.3037C124.407 46.0996 124.015 45.9206 123.782 45.7666C123.553 45.6126 123.383 45.4408 123.272 45.251C123.161 45.0612 123.105 44.8302 123.105 44.5581C123.105 44.0819 123.301 43.7041 123.691 43.4248C124.081 43.1455 124.604 43.0059 125.259 43.0059C125.915 43.0059 126.547 43.1348 127.155 43.3926L126.838 44.1177C126.251 43.8778 125.732 43.7578 125.281 43.7578C124.833 43.7578 124.5 43.8223 124.282 43.9512C124.063 44.0801 123.954 44.2627 123.954 44.499C123.954 44.6566 123.993 44.7909 124.072 44.9019C124.151 45.0129 124.28 45.1185 124.459 45.2188C124.638 45.319 124.984 45.464 125.496 45.6538C126.194 45.908 126.665 46.1641 126.908 46.4219C127.155 46.6797 127.279 47.0037 127.279 47.394C127.279 47.9419 127.073 48.3644 126.661 48.6616C126.253 48.9588 125.669 49.1074 124.91 49.1074C124.155 49.1074 123.558 48.9839 123.122 48.7368V47.9097C123.73 48.2176 124.346 48.3716 124.969 48.3716ZM133.584 49H132.849L132.72 48.2104H132.671C132.489 48.5005 132.236 48.7225 131.914 48.8765C131.592 49.0304 131.221 49.1074 130.802 49.1074C130.075 49.1074 129.536 48.9373 129.186 48.5972C128.835 48.2534 128.659 47.7091 128.659 46.9644V43.1133H129.562V46.9321C129.562 47.4155 129.671 47.7754 129.889 48.0117C130.111 48.2445 130.453 48.3608 130.915 48.3608C131.531 48.3608 131.98 48.1925 132.263 47.856C132.55 47.5158 132.693 46.9661 132.693 46.207V43.1133H133.584V49ZM139.294 43.1133H141.002V43.8062H139.294V47.2705C139.294 47.6214 139.376 47.8936 139.541 48.0869C139.709 48.2767 139.938 48.3716 140.229 48.3716C140.519 48.3716 140.791 48.3358 141.045 48.2642V48.9517C140.959 48.9946 140.819 49.0304 140.626 49.0591C140.433 49.0913 140.261 49.1074 140.11 49.1074C138.972 49.1074 138.402 48.5076 138.402 47.3081V43.8062H137.559V43.3765L138.402 43.0059L138.778 41.749H139.294V43.1133ZM142.447 43.5215C143.063 43.1849 143.725 43.0166 144.434 43.0166C145.143 43.0166 145.664 43.1742 145.997 43.4893C146.334 43.8008 146.502 44.2985 146.502 44.9824V49H145.847L145.669 48.1621H145.626C145.333 48.5309 145.039 48.7816 144.746 48.9141C144.456 49.043 144.092 49.1074 143.655 49.1074C143.072 49.1074 142.613 48.957 142.28 48.6562C141.947 48.3519 141.781 47.924 141.781 47.3726C141.781 46.1873 142.733 45.5643 144.638 45.5034L145.637 45.4712V45.106C145.637 44.6405 145.537 44.3003 145.336 44.0854C145.139 43.867 144.806 43.7578 144.337 43.7578C143.868 43.7578 143.329 43.9064 142.721 44.2036L142.447 43.5215ZM142.721 47.3833C142.721 47.702 142.817 47.9473 143.011 48.1191C143.204 48.2874 143.478 48.3716 143.833 48.3716C144.388 48.3716 144.823 48.2194 145.138 47.915C145.456 47.6071 145.616 47.181 145.616 46.6367V46.105L144.724 46.1426C144.015 46.1676 143.503 46.2786 143.188 46.4756C142.876 46.6689 142.721 46.9715 142.721 47.3833ZM151.035 43.0059C151.293 43.0059 151.528 43.0273 151.739 43.0703L151.615 43.8975C151.372 43.8438 151.157 43.8169 150.971 43.8169C150.491 43.8169 150.083 44.0103 149.746 44.397C149.41 44.7801 149.241 45.2617 149.241 45.8418V49H148.35V43.1133H149.085L149.188 44.2036H149.23C149.449 43.8169 149.712 43.5215 150.02 43.3174C150.332 43.1097 150.67 43.0059 151.035 43.0059ZM152.765 41.5181C152.765 41.3211 152.813 41.1743 152.91 41.0776C153.006 40.9774 153.132 40.9272 153.286 40.9272C153.44 40.9272 153.567 40.9774 153.667 41.0776C153.767 41.1779 153.817 41.3247 153.817 41.5181C153.817 41.7114 153.767 41.86 153.667 41.9639C153.567 42.0641 153.44 42.1143 153.286 42.1143C153.132 42.1143 153.006 42.0641 152.91 41.9639C152.813 41.86 152.765 41.7114 152.765 41.5181ZM153.731 43.1133V49.9023C153.731 51.0625 153.196 51.6426 152.125 51.6426C151.778 51.6426 151.502 51.5978 151.298 51.5083V50.7832C151.553 50.8548 151.809 50.8906 152.066 50.8906C152.582 50.8906 152.84 50.5827 152.84 49.9668V43.1133H153.731ZM158.109 49.1074C157.239 49.1074 156.551 48.8424 156.046 48.3125C155.545 47.779 155.294 47.0396 155.294 46.0942C155.294 45.1489 155.527 44.3988 155.993 43.8438C156.462 43.2852 157.078 43.0059 157.84 43.0059C158.607 43.0059 159.203 43.2511 159.629 43.7417C160.059 44.2179 160.273 44.8553 160.273 45.6538V46.2178H156.218C156.236 46.9053 156.41 47.4299 156.739 47.7915C157.069 48.1496 157.543 48.3286 158.163 48.3286C158.782 48.3286 159.4 48.1961 160.016 47.9312V48.7261C159.704 48.8621 159.405 48.9588 159.119 49.0161C158.836 49.077 158.499 49.1074 158.109 49.1074ZM159.317 45.4927C159.317 44.9341 159.192 44.5062 158.941 44.209C158.691 43.9082 158.331 43.7578 157.862 43.7578C157.396 43.7578 157.022 43.91 156.739 44.2144C156.456 44.5187 156.29 44.9448 156.24 45.4927H159.317ZM162.755 43.1133H164.463V43.8062H162.755V47.2705C162.755 47.6214 162.837 47.8936 163.002 48.0869C163.17 48.2767 163.399 48.3716 163.689 48.3716C163.979 48.3716 164.252 48.3358 164.506 48.2642V48.9517C164.42 48.9946 164.28 49.0304 164.087 49.0591C163.894 49.0913 163.722 49.1074 163.571 49.1074C162.433 49.1074 161.863 48.5076 161.863 47.3081V43.8062H161.02V43.3765L161.863 43.0059L162.239 41.749H162.755V43.1133ZM165.908 43.5215C166.524 43.1849 167.186 43.0166 167.895 43.0166C168.604 43.0166 169.125 43.1742 169.458 43.4893C169.795 43.8008 169.963 44.2985 169.963 44.9824V49H169.308L169.13 48.1621H169.087C168.794 48.5309 168.5 48.7816 168.207 48.9141C167.917 49.043 167.553 49.1074 167.116 49.1074C166.533 49.1074 166.074 48.957 165.741 48.6562C165.408 48.3519 165.242 47.924 165.242 47.3726C165.242 46.1873 166.194 45.5643 168.099 45.5034L169.098 45.4712V45.106C169.098 44.6405 168.998 44.3003 168.797 44.0854C168.6 43.867 168.267 43.7578 167.798 43.7578C167.329 43.7578 166.79 43.9064 166.182 44.2036L165.908 43.5215ZM166.182 47.3833C166.182 47.702 166.278 47.9473 166.472 48.1191C166.665 48.2874 166.939 48.3716 167.293 48.3716C167.848 48.3716 168.284 48.2194 168.599 47.915C168.917 47.6071 169.077 47.181 169.077 46.6367V46.105L168.185 46.1426C167.476 46.1676 166.964 46.2786 166.649 46.4756C166.337 46.6689 166.182 46.9715 166.182 47.3833ZM179.518 49H178.793L178.675 48.2104H178.626C178.211 48.8084 177.606 49.1074 176.811 49.1074C176.02 49.1074 175.409 48.8442 174.979 48.3179C174.553 47.7879 174.34 47.0396 174.34 46.0728C174.34 45.1024 174.555 44.3486 174.985 43.8115C175.415 43.2744 176.02 43.0059 176.8 43.0059C177.584 43.0059 178.19 43.2959 178.616 43.876H178.686L178.648 43.4517L178.626 43.0381V40.6426H179.518V49ZM178.626 46.2607V46.0728C178.626 45.2384 178.487 44.644 178.208 44.2896C177.939 43.9351 177.497 43.7578 176.881 43.7578C176.358 43.7578 175.957 43.9601 175.678 44.3647C175.402 44.7658 175.264 45.3405 175.264 46.0889C175.264 46.8372 175.402 47.403 175.678 47.7861C175.953 48.1693 176.358 48.3608 176.892 48.3608C177.5 48.3608 177.941 48.1961 178.213 47.8667C178.489 47.5337 178.626 46.9984 178.626 46.2607ZM183.901 49.1074C183.031 49.1074 182.343 48.8424 181.838 48.3125C181.337 47.779 181.086 47.0396 181.086 46.0942C181.086 45.1489 181.319 44.3988 181.785 43.8438C182.254 43.2852 182.87 43.0059 183.632 43.0059C184.399 43.0059 184.995 43.2511 185.421 43.7417C185.851 44.2179 186.065 44.8553 186.065 45.6538V46.2178H182.01C182.028 46.9053 182.202 47.4299 182.531 47.7915C182.861 48.1496 183.335 48.3286 183.955 48.3286C184.574 48.3286 185.192 48.1961 185.808 47.9312V48.7261C185.496 48.8621 185.197 48.9588 184.911 49.0161C184.628 49.077 184.291 49.1074 183.901 49.1074ZM185.109 45.4927C185.109 44.9341 184.984 44.5062 184.733 44.209C184.483 43.9082 184.123 43.7578 183.654 43.7578C183.188 43.7578 182.814 43.91 182.531 44.2144C182.248 44.5187 182.082 44.9448 182.032 45.4927H185.109ZM192.801 49.1074C191.949 49.1074 191.288 48.846 190.819 48.3232C190.353 47.8005 190.121 47.0521 190.121 46.0781C190.121 45.1042 190.357 44.3486 190.83 43.8115C191.306 43.2744 191.983 43.0059 192.86 43.0059C193.132 43.0059 193.408 43.0363 193.687 43.0972C193.97 43.1545 194.199 43.2261 194.375 43.312L194.101 44.0693C193.9 43.9906 193.689 43.9261 193.467 43.876C193.245 43.8258 193.035 43.8008 192.838 43.8008C191.642 43.8008 191.044 44.5617 191.044 46.0835C191.044 46.8104 191.191 47.3672 191.485 47.7539C191.778 48.137 192.21 48.3286 192.779 48.3286C193.266 48.3286 193.769 48.223 194.289 48.0117V48.8013C193.888 49.0054 193.392 49.1074 192.801 49.1074ZM198.365 43.0059C198.623 43.0059 198.858 43.0273 199.069 43.0703L198.945 43.8975C198.702 43.8438 198.487 43.8169 198.301 43.8169C197.821 43.8169 197.413 44.0103 197.076 44.397C196.74 44.7801 196.571 45.2617 196.571 45.8418V49H195.68V43.1133H196.416L196.518 44.2036H196.561C196.779 43.8169 197.042 43.5215 197.35 43.3174C197.662 43.1097 198 43.0059 198.365 43.0059ZM203.865 40.5728V40.6855C203.704 40.9219 203.468 41.2101 203.156 41.5503C202.845 41.8905 202.576 42.1519 202.351 42.3345H201.754V42.2002C201.926 41.9782 202.111 41.7096 202.308 41.3945C202.508 41.0794 202.666 40.8055 202.78 40.5728H203.865ZM202.657 49.1074C201.783 49.1074 201.096 48.8424 200.594 48.3125C200.093 47.779 199.842 47.0413 199.842 46.0996C199.842 45.1579 200.075 44.4077 200.541 43.8491C201.01 43.2869 201.624 43.0059 202.383 43.0059C203.146 43.0059 203.742 43.2476 204.171 43.731C204.605 44.2144 204.821 44.8553 204.821 45.6538V46.2178H200.766C200.784 46.9053 200.958 47.4299 201.287 47.7915C201.617 48.1496 202.089 48.3286 202.705 48.3286C203.325 48.3286 203.946 48.1961 204.569 47.9312V48.7261C204.25 48.8657 203.949 48.9642 203.667 49.0215C203.384 49.0788 203.047 49.1074 202.657 49.1074ZM203.865 45.4927C203.865 44.9341 203.74 44.5044 203.489 44.2036C203.239 43.9028 202.879 43.7524 202.41 43.7524C201.944 43.7524 201.57 43.9064 201.287 44.2144C201.004 44.5187 200.838 44.9448 200.788 45.4927H203.865ZM211.197 49H210.472L210.354 48.2104H210.305C209.89 48.8084 209.285 49.1074 208.49 49.1074C207.698 49.1074 207.088 48.8442 206.658 48.3179C206.232 47.7879 206.019 47.0396 206.019 46.0728C206.019 45.1024 206.234 44.3486 206.664 43.8115C207.093 43.2744 207.698 43.0059 208.479 43.0059C209.263 43.0059 209.868 43.2959 210.294 43.876H210.364L210.327 43.4517L210.305 43.0381V40.6426H211.197V49ZM210.305 46.2607V46.0728C210.305 45.2384 210.166 44.644 209.886 44.2896C209.618 43.9351 209.175 43.7578 208.56 43.7578C208.037 43.7578 207.636 43.9601 207.356 44.3647C207.081 44.7658 206.943 45.3405 206.943 46.0889C206.943 46.8372 207.081 47.403 207.356 47.7861C207.632 48.1693 208.037 48.3608 208.57 48.3608C209.179 48.3608 209.619 48.1961 209.892 47.8667C210.167 47.5337 210.305 46.9984 210.305 46.2607ZM213.018 41.5181C213.018 41.3211 213.066 41.1743 213.163 41.0776C213.259 40.9774 213.385 40.9272 213.539 40.9272C213.693 40.9272 213.82 40.9774 213.92 41.0776C214.02 41.1779 214.07 41.3247 214.07 41.5181C214.07 41.7114 214.02 41.86 213.92 41.9639C213.82 42.0641 213.693 42.1143 213.539 42.1143C213.385 42.1143 213.259 42.0641 213.163 41.9639C213.066 41.86 213.018 41.7114 213.018 41.5181ZM213.984 49H213.093V43.1133H213.984V49ZM216.831 43.1133H218.539V43.8062H216.831V47.2705C216.831 47.6214 216.913 47.8936 217.078 48.0869C217.246 48.2767 217.476 48.3716 217.766 48.3716C218.056 48.3716 218.328 48.3358 218.582 48.2642V48.9517C218.496 48.9946 218.356 49.0304 218.163 49.0591C217.97 49.0913 217.798 49.1074 217.647 49.1074C216.509 49.1074 215.939 48.5076 215.939 47.3081V43.8062H215.096V43.3765L215.939 43.0059L216.315 41.749H216.831V43.1133ZM219.431 46.0513C219.431 45.0916 219.669 44.3451 220.145 43.8115C220.625 43.2744 221.284 43.0059 222.122 43.0059C222.963 43.0059 223.624 43.2798 224.104 43.8276C224.594 44.3719 224.839 45.1185 224.839 46.0674C224.839 47.0163 224.598 47.7611 224.114 48.3018C223.631 48.8389 222.963 49.1074 222.111 49.1074C222.097 49.1074 222.082 49.1074 222.068 49.1074C221.291 49.1074 220.657 48.8317 220.167 48.2803C219.676 47.7288 219.431 47.0109 219.431 46.1265C219.431 46.1014 219.431 46.0763 219.431 46.0513ZM222.122 43.7686C220.944 43.7686 220.354 44.5295 220.354 46.0513C220.354 46.8032 220.505 47.3761 220.806 47.77C221.11 48.1639 221.552 48.3608 222.132 48.3608C222.716 48.3608 223.158 48.1657 223.459 47.7754C223.763 47.3815 223.916 46.8086 223.916 46.0566C223.916 45.3047 223.763 44.7354 223.459 44.3486C223.158 43.9619 222.712 43.7686 222.122 43.7686ZM230.162 43.9189C230.592 43.3102 231.201 43.0059 231.988 43.0059C232.78 43.0059 233.388 43.2726 233.814 43.8062C234.241 44.3397 234.454 45.0898 234.454 46.0566C234.454 47.0234 234.237 47.7736 233.804 48.3071C233.374 48.8407 232.765 49.1074 231.978 49.1074C231.19 49.1074 230.585 48.8192 230.162 48.2427H230.098C230.141 48.5864 230.162 48.9123 230.162 49.2202V51.6426H229.271V43.1133H229.996L230.119 43.9189H230.162ZM230.162 46.0513C230.162 46.8748 230.3 47.4674 230.576 47.8291C230.851 48.1836 231.294 48.3608 231.902 48.3608C232.414 48.3608 232.812 48.1567 233.095 47.7485C233.381 47.3368 233.524 46.7674 233.524 46.0405C233.524 45.3101 233.381 44.7497 233.095 44.3594C232.812 43.9655 232.407 43.7686 231.881 43.7686C231.276 43.7686 230.839 43.9351 230.57 44.2681C230.302 44.6011 230.166 45.1292 230.162 45.8525V46.0513ZM236.237 43.5215C236.853 43.1849 237.515 43.0166 238.224 43.0166C238.933 43.0166 239.454 43.1742 239.787 43.4893C240.124 43.8008 240.292 44.2985 240.292 44.9824V49H239.637L239.459 48.1621H239.417C239.123 48.5309 238.829 48.7816 238.536 48.9141C238.246 49.043 237.882 49.1074 237.445 49.1074C236.862 49.1074 236.403 48.957 236.07 48.6562C235.737 48.3519 235.571 47.924 235.571 47.3726C235.571 46.1873 236.523 45.5643 238.428 45.5034L239.427 45.4712V45.106C239.427 44.6405 239.327 44.3003 239.126 44.0854C238.93 43.867 238.597 43.7578 238.127 43.7578C237.658 43.7578 237.119 43.9064 236.511 44.2036L236.237 43.5215ZM236.511 47.3833C236.511 47.702 236.607 47.9473 236.801 48.1191C236.994 48.2874 237.268 48.3716 237.623 48.3716C238.178 48.3716 238.613 48.2194 238.928 47.915C239.246 47.6071 239.406 47.181 239.406 46.6367V46.105L238.514 46.1426C237.805 46.1676 237.293 46.2786 236.978 46.4756C236.667 46.6689 236.511 46.9715 236.511 47.3833ZM244.825 43.0059C245.083 43.0059 245.318 43.0273 245.529 43.0703L245.405 43.8975C245.162 43.8438 244.947 43.8169 244.761 43.8169C244.281 43.8169 243.873 44.0103 243.536 44.397C243.2 44.7801 243.031 45.2617 243.031 45.8418V49H242.14V43.1133H242.875L242.978 44.2036H243.021C243.239 43.8169 243.502 43.5215 243.81 43.3174C244.122 43.1097 244.46 43.0059 244.825 43.0059ZM246.85 43.5215C247.466 43.1849 248.128 43.0166 248.837 43.0166C249.546 43.0166 250.067 43.1742 250.4 43.4893C250.737 43.8008 250.905 44.2985 250.905 44.9824V49H250.25L250.073 48.1621H250.03C249.736 48.5309 249.443 48.7816 249.149 48.9141C248.859 49.043 248.495 49.1074 248.059 49.1074C247.475 49.1074 247.017 48.957 246.684 48.6562C246.351 48.3519 246.184 47.924 246.184 47.3726C246.184 46.1873 247.137 45.5643 249.042 45.5034L250.041 45.4712V45.106C250.041 44.6405 249.94 44.3003 249.74 44.0854C249.543 43.867 249.21 43.7578 248.741 43.7578C248.272 43.7578 247.733 43.9064 247.124 44.2036L246.85 43.5215ZM247.124 47.3833C247.124 47.702 247.221 47.9473 247.414 48.1191C247.607 48.2874 247.881 48.3716 248.236 48.3716C248.791 48.3716 249.226 48.2194 249.541 47.915C249.86 47.6071 250.019 47.181 250.019 46.6367V46.105L249.127 46.1426C248.418 46.1676 247.906 46.2786 247.591 46.4756C247.28 46.6689 247.124 46.9715 247.124 47.3833ZM3.27637 64H2.23438L0 58.1133H0.956055L2.22363 61.6045C2.51725 62.4424 2.68555 62.9723 2.72852 63.1943H2.77148C2.80729 63.0081 2.92725 62.6268 3.13135 62.0503C3.33545 61.4702 3.8099 60.1579 4.55469 58.1133H5.51074L3.27637 64ZM8.94287 64.1074C8.07275 64.1074 7.38525 63.8424 6.88037 63.3125C6.37907 62.779 6.12842 62.0396 6.12842 61.0942C6.12842 60.1489 6.36117 59.3988 6.82666 58.8438C7.29574 58.2852 7.91162 58.0059 8.67432 58.0059C9.44059 58.0059 10.0368 58.2511 10.4629 58.7417C10.8926 59.2179 11.1074 59.8553 11.1074 60.6538V61.2178H7.05225C7.07015 61.9053 7.24382 62.4299 7.57324 62.7915C7.90267 63.1496 8.37712 63.3286 8.99658 63.3286C9.61605 63.3286 10.2337 63.1961 10.8496 62.9312V63.7261C10.5381 63.8621 10.2391 63.9588 9.95264 64.0161C9.66976 64.077 9.33317 64.1074 8.94287 64.1074ZM10.1514 60.4927C10.1514 59.9341 10.026 59.5062 9.77539 59.209C9.52474 58.9082 9.16488 58.7578 8.6958 58.7578C8.23031 58.7578 7.85612 58.91 7.57324 59.2144C7.29036 59.5187 7.12386 59.9448 7.07373 60.4927H10.1514ZM15.3184 58.0059C15.5762 58.0059 15.8107 58.0273 16.022 58.0703L15.8984 58.8975C15.6549 58.8438 15.4401 58.8169 15.2539 58.8169C14.7741 58.8169 14.3659 59.0103 14.0293 59.397C13.6927 59.7801 13.5244 60.2617 13.5244 60.8418V64H12.6328V58.1133H13.3687L13.4707 59.2036H13.5137C13.7321 58.8169 13.9953 58.5215 14.3032 58.3174C14.6147 58.1097 14.9531 58.0059 15.3184 58.0059ZM17.0479 56.5181C17.0479 56.3211 17.0962 56.1743 17.1929 56.0776C17.2896 55.9774 17.4149 55.9272 17.5688 55.9272C17.7228 55.9272 17.8499 55.9774 17.9502 56.0776C18.0505 56.1779 18.1006 56.3247 18.1006 56.5181C18.1006 56.7114 18.0505 56.86 17.9502 56.9639C17.8499 57.0641 17.7228 57.1143 17.5688 57.1143C17.4149 57.1143 17.2896 57.0641 17.1929 56.9639C17.0962 56.86 17.0479 56.7114 17.0479 56.5181ZM18.0146 64H17.123V58.1133H18.0146V64ZM20.1685 57.7534C20.1685 56.3068 20.8005 55.5835 22.0645 55.5835C22.3688 55.5835 22.734 55.6462 23.1602 55.7715L22.9292 56.4858C22.5926 56.3748 22.299 56.3193 22.0483 56.3193C21.7118 56.3193 21.4629 56.4321 21.3018 56.6577C21.1406 56.8833 21.0601 57.2414 21.0601 57.7319V58.1133H22.5586V58.8062H21.0601V64H20.1685V58.8062H19.1157V58.4033L20.1685 58.0811V57.7534ZM23.5576 56.5181C23.5576 56.3211 23.606 56.1743 23.7026 56.0776C23.7993 55.9774 23.9246 55.9272 24.0786 55.9272C24.2326 55.9272 24.3597 55.9774 24.46 56.0776C24.5602 56.1779 24.6104 56.3247 24.6104 56.5181C24.6104 56.7114 24.5602 56.86 24.46 56.9639C24.3597 57.0641 24.2326 57.1143 24.0786 57.1143C23.9246 57.1143 23.7993 57.0641 23.7026 56.9639C23.606 56.86 23.5576 56.7114 23.5576 56.5181ZM24.5244 64H23.6328V58.1133H24.5244V64ZM28.7676 64.1074C27.9154 64.1074 27.2547 63.846 26.7856 63.3232C26.3201 62.8005 26.0874 62.0521 26.0874 61.0781C26.0874 60.1042 26.3237 59.3486 26.7964 58.8115C27.2726 58.2744 27.9494 58.0059 28.8267 58.0059C29.0988 58.0059 29.3745 58.0363 29.6538 58.0972C29.9367 58.1545 30.1659 58.2261 30.3413 58.312L30.0674 59.0693C29.8669 58.9906 29.6556 58.9261 29.4336 58.876C29.2116 58.8258 29.0021 58.8008 28.8052 58.8008C27.6092 58.8008 27.0112 59.5617 27.0112 61.0835C27.0112 61.8104 27.158 62.3672 27.4517 62.7539C27.7453 63.137 28.1768 63.3286 28.7461 63.3286C29.2331 63.3286 29.7362 63.223 30.2554 63.0117V63.8013C29.8543 64.0054 29.3584 64.1074 28.7676 64.1074ZM31.8667 58.5215C32.4826 58.1849 33.145 58.0166 33.854 58.0166C34.563 58.0166 35.084 58.1742 35.417 58.4893C35.7536 58.8008 35.9219 59.2985 35.9219 59.9824V64H35.2666L35.0894 63.1621H35.0464C34.7528 63.5309 34.4591 63.7816 34.1655 63.9141C33.8755 64.043 33.512 64.1074 33.0752 64.1074C32.4915 64.1074 32.0332 63.957 31.7002 63.6562C31.3672 63.3519 31.2007 62.924 31.2007 62.3726C31.2007 61.1873 32.1532 60.5643 34.0581 60.5034L35.0571 60.4712V60.106C35.0571 59.6405 34.9569 59.3003 34.7563 59.0854C34.5594 58.867 34.2264 58.7578 33.7573 58.7578C33.2882 58.7578 32.7493 58.9064 32.1406 59.2036L31.8667 58.5215ZM32.1406 62.3833C32.1406 62.702 32.2373 62.9473 32.4307 63.1191C32.624 63.2874 32.8979 63.3716 33.2524 63.3716C33.8075 63.3716 34.2425 63.2194 34.5576 62.915C34.8763 62.6071 35.0356 62.181 35.0356 61.6367V61.105L34.144 61.1426C33.4351 61.1676 32.923 61.2786 32.6079 61.4756C32.2964 61.6689 32.1406 61.9715 32.1406 62.3833ZM40.4551 58.0059C40.7129 58.0059 40.9474 58.0273 41.1587 58.0703L41.0352 58.8975C40.7917 58.8438 40.5768 58.8169 40.3906 58.8169C39.9108 58.8169 39.5026 59.0103 39.166 59.397C38.8294 59.7801 38.6611 60.2617 38.6611 60.8418V64H37.7695V58.1133H38.5054L38.6074 59.2036H38.6504C38.8688 58.8169 39.132 58.5215 39.4399 58.3174C39.7515 58.1097 40.0898 58.0059 40.4551 58.0059ZM46.605 63.3716C47.5718 63.3716 48.0552 63.0708 48.0552 62.4692C48.0552 62.2401 47.9549 62.0449 47.7544 61.8838C47.5575 61.7191 47.1707 61.5257 46.5942 61.3037C46.0428 61.0996 45.6507 60.9206 45.418 60.7666C45.1888 60.6126 45.0187 60.4408 44.9077 60.251C44.7967 60.0612 44.7412 59.8302 44.7412 59.5581C44.7412 59.0819 44.9364 58.7041 45.3267 58.4248C45.717 58.1455 46.2397 58.0059 46.895 58.0059C47.5503 58.0059 48.1823 58.1348 48.791 58.3926L48.4741 59.1177C47.8869 58.8778 47.3677 58.7578 46.9165 58.7578C46.4689 58.7578 46.1359 58.8223 45.9175 58.9512C45.6991 59.0801 45.5898 59.2627 45.5898 59.499C45.5898 59.6566 45.6292 59.7909 45.708 59.9019C45.7868 60.0129 45.9157 60.1185 46.0947 60.2188C46.2738 60.319 46.6193 60.464 47.1313 60.6538C47.8296 60.908 48.3005 61.1641 48.5439 61.4219C48.791 61.6797 48.9146 62.0037 48.9146 62.394C48.9146 62.9419 48.7087 63.3644 48.2969 63.6616C47.8887 63.9588 47.305 64.1074 46.5459 64.1074C45.7904 64.1074 45.1942 63.9839 44.7573 63.7368V62.9097C45.366 63.2176 45.9819 63.3716 46.605 63.3716ZM55.2202 64H54.4844L54.3555 63.2104H54.3071C54.1245 63.5005 53.8721 63.7225 53.5498 63.8765C53.2275 64.0304 52.8569 64.1074 52.438 64.1074C51.7111 64.1074 51.1722 63.9373 50.8213 63.5972C50.4704 63.2534 50.2949 62.7091 50.2949 61.9644V58.1133H51.1973V61.9321C51.1973 62.4155 51.3065 62.7754 51.5249 63.0117C51.7469 63.2445 52.0889 63.3608 52.5508 63.3608C53.1667 63.3608 53.616 63.1925 53.8989 62.856C54.1854 62.5158 54.3286 61.9661 54.3286 61.207V58.1133H55.2202V64ZM62.3262 64.1074C61.474 64.1074 60.8133 63.846 60.3442 63.3232C59.8787 62.8005 59.646 62.0521 59.646 61.0781C59.646 60.1042 59.8823 59.3486 60.355 58.8115C60.8312 58.2744 61.508 58.0059 62.3853 58.0059C62.6574 58.0059 62.9331 58.0363 63.2124 58.0972C63.4953 58.1545 63.7244 58.2261 63.8999 58.312L63.626 59.0693C63.4255 58.9906 63.2142 58.9261 62.9922 58.876C62.7702 58.8258 62.5607 58.8008 62.3638 58.8008C61.1678 58.8008 60.5698 59.5617 60.5698 61.0835C60.5698 61.8104 60.7166 62.3672 61.0103 62.7539C61.3039 63.137 61.7354 63.3286 62.3047 63.3286C62.7917 63.3286 63.2948 63.223 63.814 63.0117V63.8013C63.4129 64.0054 62.917 64.1074 62.3262 64.1074ZM70.0659 64H69.3301L69.2012 63.2104H69.1528C68.9702 63.5005 68.7178 63.7225 68.3955 63.8765C68.0732 64.0304 67.7026 64.1074 67.2837 64.1074C66.5568 64.1074 66.0179 63.9373 65.667 63.5972C65.3161 63.2534 65.1406 62.7091 65.1406 61.9644V58.1133H66.043V61.9321C66.043 62.4155 66.1522 62.7754 66.3706 63.0117C66.5926 63.2445 66.9346 63.3608 67.3965 63.3608C68.0124 63.3608 68.4618 63.1925 68.7446 62.856C69.0311 62.5158 69.1743 61.9661 69.1743 61.207V58.1133H70.0659V64ZM74.4487 64.1074C73.5786 64.1074 72.8911 63.8424 72.3862 63.3125C71.8849 62.779 71.6343 62.0396 71.6343 61.0942C71.6343 60.1489 71.867 59.3988 72.3325 58.8438C72.8016 58.2852 73.4175 58.0059 74.1802 58.0059C74.9465 58.0059 75.5426 58.2511 75.9688 58.7417C76.3984 59.2179 76.6133 59.8553 76.6133 60.6538V61.2178H72.5581C72.576 61.9053 72.7497 62.4299 73.0791 62.7915C73.4085 63.1496 73.883 63.3286 74.5024 63.3286C75.1219 63.3286 75.7396 63.1961 76.3555 62.9312V63.7261C76.0439 63.8621 75.745 63.9588 75.4585 64.0161C75.1756 64.077 74.839 64.1074 74.4487 64.1074ZM75.6572 60.4927C75.6572 59.9341 75.5319 59.5062 75.2812 59.209C75.0306 58.9082 74.6707 58.7578 74.2017 58.7578C73.7362 58.7578 73.362 58.91 73.0791 59.2144C72.7962 59.5187 72.6297 59.9448 72.5796 60.4927H75.6572ZM80.9209 58.0059C81.637 58.0059 82.1724 58.1795 82.5269 58.5269C82.8813 58.8742 83.0586 59.4185 83.0586 60.1597V64H82.167V60.1919C82.167 59.7085 82.056 59.3504 81.834 59.1177C81.6156 58.8849 81.2754 58.7686 80.8135 58.7686C80.194 58.7686 79.741 58.9351 79.4546 59.2681C79.1717 59.6011 79.0303 60.1489 79.0303 60.9116V64H78.1387V58.1133H78.8638L79.0088 58.9189H79.0518C79.2344 58.6289 79.4886 58.4051 79.8145 58.2476C80.1439 58.0864 80.5127 58.0059 80.9209 58.0059ZM85.8516 58.1133H87.5596V58.8062H85.8516V62.2705C85.8516 62.6214 85.9339 62.8936 86.0986 63.0869C86.2669 63.2767 86.4961 63.3716 86.7861 63.3716C87.0762 63.3716 87.3483 63.3358 87.6025 63.2642V63.9517C87.5166 63.9946 87.377 64.0304 87.1836 64.0591C86.9902 64.0913 86.8184 64.1074 86.668 64.1074C85.5293 64.1074 84.96 63.5076 84.96 62.3081V58.8062H84.1167V58.3765L84.96 58.0059L85.3359 56.749H85.8516V58.1133ZM89.0044 58.5215C89.6203 58.1849 90.2827 58.0166 90.9917 58.0166C91.7007 58.0166 92.2217 58.1742 92.5547 58.4893C92.8913 58.8008 93.0596 59.2985 93.0596 59.9824V64H92.4043L92.2271 63.1621H92.1841C91.8905 63.5309 91.5968 63.7816 91.3032 63.9141C91.0132 64.043 90.6497 64.1074 90.2129 64.1074C89.6292 64.1074 89.1709 63.957 88.8379 63.6562C88.5049 63.3519 88.3384 62.924 88.3384 62.3726C88.3384 61.1873 89.2909 60.5643 91.1958 60.5034L92.1948 60.4712V60.106C92.1948 59.6405 92.0946 59.3003 91.894 59.0854C91.6971 58.867 91.3641 58.7578 90.895 58.7578C90.4259 58.7578 89.887 58.9064 89.2783 59.2036L89.0044 58.5215ZM89.2783 62.3833C89.2783 62.702 89.375 62.9473 89.5684 63.1191C89.7617 63.2874 90.0356 63.3716 90.3901 63.3716C90.9451 63.3716 91.3802 63.2194 91.6953 62.915C92.014 62.6071 92.1733 62.181 92.1733 61.6367V61.105L91.2817 61.1426C90.5728 61.1676 90.0607 61.2786 89.7456 61.4756C89.4341 61.6689 89.2783 61.9715 89.2783 62.3833ZM98.6562 55.6426V57.6729C98.6562 58.1061 98.6419 58.5143 98.6133 58.8975H98.6562C99.0716 58.3102 99.6768 58.0166 100.472 58.0166C101.27 58.0166 101.881 58.2816 102.303 58.8115C102.733 59.3379 102.948 60.0863 102.948 61.0566C102.948 62.0234 102.731 62.7736 102.298 63.3071C101.868 63.8407 101.259 64.1074 100.472 64.1074C99.6839 64.1074 99.0788 63.8192 98.6562 63.2427H98.5918L98.4038 64H97.7646V55.6426H98.6562ZM102.019 61.0352C102.019 60.2725 101.884 59.7049 101.616 59.3325C101.347 58.9565 100.921 58.7686 100.337 58.7686C99.7537 58.7686 99.3276 58.9422 99.0591 59.2896C98.7905 59.6369 98.6562 60.2241 98.6562 61.0513C98.6562 61.8748 98.7941 62.4674 99.0698 62.8291C99.3455 63.1836 99.7878 63.3608 100.396 63.3608C100.937 63.3608 101.342 63.1639 101.61 62.77C101.882 62.3761 102.019 61.7979 102.019 61.0352ZM104.731 58.5215C105.347 58.1849 106.009 58.0166 106.718 58.0166C107.427 58.0166 107.948 58.1742 108.281 58.4893C108.618 58.8008 108.786 59.2985 108.786 59.9824V64H108.131L107.954 63.1621H107.911C107.617 63.5309 107.323 63.7816 107.03 63.9141C106.74 64.043 106.376 64.1074 105.939 64.1074C105.356 64.1074 104.897 63.957 104.564 63.6562C104.231 63.3519 104.065 62.924 104.065 62.3726C104.065 61.1873 105.017 60.5643 106.922 60.5034L107.921 60.4712V60.106C107.921 59.6405 107.821 59.3003 107.621 59.0854C107.424 58.867 107.091 58.7578 106.622 58.7578C106.153 58.7578 105.614 58.9064 105.005 59.2036L104.731 58.5215ZM105.005 62.3833C105.005 62.702 105.102 62.9473 105.295 63.1191C105.488 63.2874 105.762 63.3716 106.117 63.3716C106.672 63.3716 107.107 63.2194 107.422 62.915C107.741 62.6071 107.9 62.181 107.9 61.6367V61.105L107.008 61.1426C106.299 61.1676 105.787 61.2786 105.472 61.4756C105.161 61.6689 105.005 61.9715 105.005 62.3833ZM113.416 58.0059C114.132 58.0059 114.667 58.1795 115.022 58.5269C115.376 58.8742 115.554 59.4185 115.554 60.1597V64H114.662V60.1919C114.662 59.7085 114.551 59.3504 114.329 59.1177C114.111 58.8849 113.771 58.7686 113.309 58.7686C112.689 58.7686 112.236 58.9351 111.95 59.2681C111.667 59.6011 111.525 60.1489 111.525 60.9116V64H110.634V58.1133H111.359L111.504 58.9189H111.547C111.729 58.6289 111.984 58.4051 112.31 58.2476C112.639 58.0864 113.008 58.0059 113.416 58.0059ZM119.743 64.1074C118.891 64.1074 118.23 63.846 117.761 63.3232C117.296 62.8005 117.063 62.0521 117.063 61.0781C117.063 60.1042 117.299 59.3486 117.772 58.8115C118.248 58.2744 118.925 58.0059 119.802 58.0059C120.074 58.0059 120.35 58.0363 120.629 58.0972C120.912 58.1545 121.141 58.2261 121.317 58.312L121.043 59.0693C120.842 58.9906 120.631 58.9261 120.409 58.876C120.187 58.8258 119.978 58.8008 119.781 58.8008C118.585 58.8008 117.987 59.5617 117.987 61.0835C117.987 61.8104 118.134 62.3672 118.427 62.7539C118.721 63.137 119.152 63.3286 119.722 63.3286C120.209 63.3286 120.712 63.223 121.231 63.0117V63.8013C120.83 64.0054 120.334 64.1074 119.743 64.1074ZM122.842 58.5215C123.458 58.1849 124.121 58.0166 124.83 58.0166C125.539 58.0166 126.06 58.1742 126.393 58.4893C126.729 58.8008 126.897 59.2985 126.897 59.9824V64H126.242L126.065 63.1621H126.022C125.728 63.5309 125.435 63.7816 125.141 63.9141C124.851 64.043 124.488 64.1074 124.051 64.1074C123.467 64.1074 123.009 63.957 122.676 63.6562C122.343 63.3519 122.176 62.924 122.176 62.3726C122.176 61.1873 123.129 60.5643 125.034 60.5034L126.033 60.4712V60.106C126.033 59.6405 125.932 59.3003 125.732 59.0854C125.535 58.867 125.202 58.7578 124.733 58.7578C124.264 58.7578 123.725 58.9064 123.116 59.2036L122.842 58.5215ZM123.116 62.3833C123.116 62.702 123.213 62.9473 123.406 63.1191C123.6 63.2874 123.874 63.3716 124.228 63.3716C124.783 63.3716 125.218 63.2194 125.533 62.915C125.852 62.6071 126.011 62.181 126.011 61.6367V61.105L125.12 61.1426C124.411 61.1676 123.899 61.2786 123.583 61.4756C123.272 61.6689 123.116 61.9715 123.116 62.3833ZM131.431 58.0059C131.688 58.0059 131.923 58.0273 132.134 58.0703L132.011 58.8975C131.767 58.8438 131.552 58.8169 131.366 58.8169C130.886 58.8169 130.478 59.0103 130.142 59.397C129.805 59.7801 129.637 60.2617 129.637 60.8418V64H128.745V58.1133H129.481L129.583 59.2036H129.626C129.844 58.8169 130.108 58.5215 130.416 58.3174C130.727 58.1097 131.065 58.0059 131.431 58.0059ZM133.16 56.5181C133.16 56.3211 133.208 56.1743 133.305 56.0776C133.402 55.9774 133.527 55.9272 133.681 55.9272C133.835 55.9272 133.962 55.9774 134.062 56.0776C134.163 56.1779 134.213 56.3247 134.213 56.5181C134.213 56.7114 134.163 56.86 134.062 56.9639C133.962 57.0641 133.835 57.1143 133.681 57.1143C133.527 57.1143 133.402 57.0641 133.305 56.9639C133.208 56.86 133.16 56.7114 133.16 56.5181ZM134.127 64H133.235V58.1133H134.127V64ZM136.238 58.5215C136.854 58.1849 137.516 58.0166 138.225 58.0166C138.934 58.0166 139.455 58.1742 139.788 58.4893C140.125 58.8008 140.293 59.2985 140.293 59.9824V64H139.638L139.46 63.1621H139.417C139.124 63.5309 138.83 63.7816 138.537 63.9141C138.247 64.043 137.883 64.1074 137.446 64.1074C136.863 64.1074 136.404 63.957 136.071 63.6562C135.738 63.3519 135.572 62.924 135.572 62.3726C135.572 61.1873 136.524 60.5643 138.429 60.5034L139.428 60.4712V60.106C139.428 59.6405 139.328 59.3003 139.127 59.0854C138.931 58.867 138.597 58.7578 138.128 58.7578C137.659 58.7578 137.12 58.9064 136.512 59.2036L136.238 58.5215ZM136.512 62.3833C136.512 62.702 136.608 62.9473 136.802 63.1191C136.995 63.2874 137.269 63.3716 137.624 63.3716C138.179 63.3716 138.614 63.2194 138.929 62.915C139.247 62.6071 139.407 62.181 139.407 61.6367V61.105L138.515 61.1426C137.806 61.1676 137.294 61.2786 136.979 61.4756C136.667 61.6689 136.512 61.9715 136.512 62.3833ZM147.485 64.1074C146.615 64.1074 145.927 63.8424 145.422 63.3125C144.921 62.779 144.67 62.0396 144.67 61.0942C144.67 60.1489 144.903 59.3988 145.369 58.8438C145.838 58.2852 146.454 58.0059 147.216 58.0059C147.983 58.0059 148.579 58.2511 149.005 58.7417C149.435 59.2179 149.649 59.8553 149.649 60.6538V61.2178H145.594C145.612 61.9053 145.786 62.4299 146.115 62.7915C146.445 63.1496 146.919 63.3286 147.539 63.3286C148.158 63.3286 148.776 63.1961 149.392 62.9312V63.7261C149.08 63.8621 148.781 63.9588 148.495 64.0161C148.212 64.077 147.875 64.1074 147.485 64.1074ZM148.693 60.4927C148.693 59.9341 148.568 59.5062 148.317 59.209C148.067 58.9082 147.707 58.7578 147.238 58.7578C146.772 58.7578 146.398 58.91 146.115 59.2144C145.832 59.5187 145.666 59.9448 145.616 60.4927H148.693ZM153.957 58.0059C154.673 58.0059 155.208 58.1795 155.563 58.5269C155.917 58.8742 156.095 59.4185 156.095 60.1597V64H155.203V60.1919C155.203 59.7085 155.092 59.3504 154.87 59.1177C154.652 58.8849 154.312 58.7686 153.85 58.7686C153.23 58.7686 152.777 58.9351 152.491 59.2681C152.208 59.6011 152.066 60.1489 152.066 60.9116V64H151.175V58.1133H151.9L152.045 58.9189H152.088C152.271 58.6289 152.525 58.4051 152.851 58.2476C153.18 58.0864 153.549 58.0059 153.957 58.0059ZM161.681 64H160.789V55.6426H161.681V64ZM165.645 55.5728V55.6855C165.483 55.9219 165.247 56.2101 164.936 56.5503C164.624 56.8905 164.355 57.1519 164.13 57.3345H163.534V57.2002C163.706 56.9782 163.89 56.7096 164.087 56.3945C164.287 56.0794 164.445 55.8055 164.56 55.5728H165.645ZM164.463 64H163.571V58.1133H164.463V64ZM169.136 58.0059C169.852 58.0059 170.387 58.1795 170.742 58.5269C171.096 58.8742 171.273 59.4185 171.273 60.1597V64H170.382V60.1919C170.382 59.7085 170.271 59.3504 170.049 59.1177C169.83 58.8849 169.49 58.7686 169.028 58.7686C168.409 58.7686 167.956 58.9351 167.669 59.2681C167.387 59.6011 167.245 60.1489 167.245 60.9116V64H166.354V58.1133H167.079L167.224 58.9189H167.267C167.449 58.6289 167.703 58.4051 168.029 58.2476C168.359 58.0864 168.728 58.0059 169.136 58.0059ZM175.597 64.1074C174.727 64.1074 174.04 63.8424 173.535 63.3125C173.033 62.779 172.783 62.0396 172.783 61.0942C172.783 60.1489 173.015 59.3988 173.481 58.8438C173.95 58.2852 174.566 58.0059 175.329 58.0059C176.095 58.0059 176.691 58.2511 177.117 58.7417C177.547 59.2179 177.762 59.8553 177.762 60.6538V61.2178H173.707C173.724 61.9053 173.898 62.4299 174.228 62.7915C174.557 63.1496 175.031 63.3286 175.651 63.3286C176.27 63.3286 176.888 63.1961 177.504 62.9312V63.7261C177.192 63.8621 176.893 63.9588 176.607 64.0161C176.324 64.077 175.987 64.1074 175.597 64.1074ZM176.806 60.4927C176.806 59.9341 176.68 59.5062 176.43 59.209C176.179 58.9082 175.819 58.7578 175.35 58.7578C174.885 58.7578 174.51 58.91 174.228 59.2144C173.945 59.5187 173.778 59.9448 173.728 60.4927H176.806ZM179.507 58.5215C180.123 58.1849 180.786 58.0166 181.495 58.0166C182.204 58.0166 182.725 58.1742 183.058 58.4893C183.394 58.8008 183.562 59.2985 183.562 59.9824V64H182.907L182.73 63.1621H182.687C182.393 63.5309 182.1 63.7816 181.806 63.9141C181.516 64.043 181.153 64.1074 180.716 64.1074C180.132 64.1074 179.674 63.957 179.341 63.6562C179.008 63.3519 178.841 62.924 178.841 62.3726C178.841 61.1873 179.794 60.5643 181.699 60.5034L182.698 60.4712V60.106C182.698 59.6405 182.597 59.3003 182.397 59.0854C182.2 58.867 181.867 58.7578 181.398 58.7578C180.929 58.7578 180.39 58.9064 179.781 59.2036L179.507 58.5215ZM179.781 62.3833C179.781 62.702 179.878 62.9473 180.071 63.1191C180.265 63.2874 180.539 63.3716 180.893 63.3716C181.448 63.3716 181.883 63.2194 182.198 62.915C182.517 62.6071 182.676 62.181 182.676 61.6367V61.105L181.785 61.1426C181.076 61.1676 180.564 61.2786 180.249 61.4756C179.937 61.6689 179.781 61.9715 179.781 62.3833ZM185.281 63.4414C185.281 63.1979 185.335 63.0135 185.442 62.8882C185.553 62.7629 185.711 62.7002 185.915 62.7002C186.123 62.7002 186.284 62.7629 186.398 62.8882C186.517 63.0135 186.576 63.1943 186.576 63.4307C186.576 63.6634 186.517 63.8424 186.398 63.9678C186.284 64.0931 186.126 64.1558 185.926 64.1558C185.725 64.1558 185.568 64.0967 185.453 63.9785C185.339 63.8604 185.281 63.6813 185.281 63.4414Z" fill="#1E1E1E"/>
<line x1="1" y1="3" x2="1" y2="20" stroke="#0B7AD0" stroke-width="2"/>
</svg>
