<svg width="278" height="113" viewBox="0 0 278 113" fill="none" xmlns="http://www.w3.org/2000/svg">
<path d="M10.7244 3.81818L13.1854 11.554H13.2798L15.7457 3.81818H18.1321L14.6222 14H11.848L8.3331 3.81818H10.7244ZM21.9366 14.1491C21.1511 14.1491 20.475 13.9901 19.9082 13.6719C19.3448 13.3504 18.9106 12.8963 18.6056 12.3097C18.3007 11.7197 18.1483 11.022 18.1483 10.2166C18.1483 9.43111 18.3007 8.74171 18.6056 8.14844C18.9106 7.55516 19.3398 7.0928 19.8933 6.76136C20.4501 6.42992 21.103 6.2642 21.8521 6.2642C22.3559 6.2642 22.8249 6.34541 23.2591 6.50781C23.6966 6.6669 24.0777 6.9072 24.4025 7.22869C24.7306 7.55019 24.9859 7.95455 25.1681 8.44176C25.3504 8.92566 25.4416 9.49242 25.4416 10.142V10.7237H18.9934V9.41122H23.448C23.448 9.1063 23.3817 8.83617 23.2491 8.60085C23.1165 8.36553 22.9326 8.18158 22.6973 8.04901C22.4653 7.91312 22.1951 7.84517 21.8869 7.84517C21.5654 7.84517 21.2804 7.91974 21.0318 8.06889C20.7865 8.21473 20.5943 8.41193 20.4551 8.66051C20.3159 8.90578 20.2446 9.17921 20.2413 9.48082V10.7287C20.2413 11.1065 20.3109 11.433 20.4501 11.7081C20.5926 11.9832 20.7931 12.1953 21.0517 12.3445C21.3102 12.4936 21.6168 12.5682 21.9714 12.5682C22.2067 12.5682 22.4222 12.535 22.6177 12.4688C22.8133 12.4025 22.9806 12.303 23.1199 12.1705C23.2591 12.0379 23.3651 11.8755 23.438 11.6832L25.3968 11.8125C25.2974 12.2831 25.0936 12.6941 24.7853 13.0455C24.4804 13.3935 24.086 13.6652 23.6021 13.8608C23.1215 14.053 22.5663 14.1491 21.9366 14.1491ZM26.8237 14V6.36364H28.877V7.69602H28.9565C29.0957 7.22206 29.3294 6.86411 29.6575 6.62216C29.9856 6.37689 30.3635 6.25426 30.791 6.25426C30.8971 6.25426 31.0114 6.26089 31.1341 6.27415C31.2567 6.28741 31.3644 6.30563 31.4572 6.32883V8.2081C31.3578 8.17827 31.2202 8.15175 31.0446 8.12855C30.8689 8.10535 30.7082 8.09375 30.5623 8.09375C30.2508 8.09375 29.9724 8.1617 29.7271 8.29759C29.4851 8.43016 29.2929 8.61577 29.1504 8.8544C29.0112 9.09304 28.9416 9.36813 28.9416 9.67969V14H26.8237ZM32.5522 14V6.36364H34.6701V14H32.5522ZM33.6161 5.37926C33.3013 5.37926 33.0311 5.27486 32.8058 5.06605C32.5837 4.85393 32.4727 4.60038 32.4727 4.3054C32.4727 4.01373 32.5837 3.76349 32.8058 3.55469C33.0311 3.34257 33.3013 3.23651 33.6161 3.23651C33.931 3.23651 34.1995 3.34257 34.4215 3.55469C34.6469 3.76349 34.7596 4.01373 34.7596 4.3054C34.7596 4.60038 34.6469 4.85393 34.4215 5.06605C34.1995 5.27486 33.931 5.37926 33.6161 5.37926ZM40.4732 6.36364V7.95455H35.7601V6.36364H40.4732ZM36.839 14V5.81179C36.839 5.25829 36.9467 4.79924 37.1621 4.43466C37.3809 4.07008 37.6792 3.79664 38.057 3.61435C38.4348 3.43205 38.8641 3.34091 39.3446 3.34091C39.6694 3.34091 39.9661 3.36577 40.2346 3.41548C40.5063 3.4652 40.7085 3.50994 40.8411 3.54972L40.4632 5.14062C40.3804 5.11411 40.2776 5.08925 40.155 5.06605C40.0357 5.04285 39.9131 5.03125 39.7871 5.03125C39.4756 5.03125 39.2585 5.10417 39.1358 5.25C39.0132 5.39252 38.9519 5.59304 38.9519 5.85156V14H36.839ZM41.767 14V6.36364H43.8849V14H41.767ZM42.831 5.37926C42.5161 5.37926 42.246 5.27486 42.0206 5.06605C41.7985 4.85393 41.6875 4.60038 41.6875 4.3054C41.6875 4.01373 41.7985 3.76349 42.0206 3.55469C42.246 3.34257 42.5161 3.23651 42.831 3.23651C43.1458 3.23651 43.4143 3.34257 43.6364 3.55469C43.8617 3.76349 43.9744 4.01373 43.9744 4.3054C43.9744 4.60038 43.8617 4.85393 43.6364 5.06605C43.4143 5.27486 43.1458 5.37926 42.831 5.37926ZM49.0318 14.1491C48.2496 14.1491 47.5768 13.9834 47.0133 13.652C46.4532 13.3172 46.0223 12.8532 45.7207 12.2599C45.4224 11.6667 45.2733 10.9839 45.2733 10.2116C45.2733 9.42945 45.4241 8.74337 45.7257 8.15341C46.0306 7.56013 46.4631 7.09777 47.0233 6.76633C47.5834 6.43158 48.2496 6.2642 49.0218 6.2642C49.688 6.2642 50.2714 6.38518 50.7718 6.62713C51.2723 6.86908 51.6684 7.20881 51.96 7.64631C52.2517 8.08381 52.4125 8.59754 52.4423 9.1875H50.4437C50.3874 8.80634 50.2382 8.49976 49.9963 8.26776C49.7576 8.03243 49.4444 7.91477 49.0566 7.91477C48.7285 7.91477 48.4418 8.00426 48.1966 8.18324C47.9546 8.3589 47.7657 8.61577 47.6298 8.95384C47.4939 9.2919 47.426 9.70123 47.426 10.1818C47.426 10.669 47.4922 11.0833 47.6248 11.4247C47.7607 11.7661 47.9513 12.0263 48.1966 12.2053C48.4418 12.3842 48.7285 12.4737 49.0566 12.4737C49.2986 12.4737 49.5157 12.424 49.7079 12.3246C49.9035 12.2251 50.0642 12.081 50.1902 11.892C50.3194 11.6998 50.4039 11.4695 50.4437 11.201H52.4423C52.4092 11.7843 52.2501 12.2981 51.965 12.7422C51.6833 13.183 51.2939 13.5277 50.7967 13.7763C50.2995 14.0249 49.7112 14.1491 49.0318 14.1491ZM55.9759 14.1442C55.4886 14.1442 55.0545 14.0597 54.6733 13.8906C54.2921 13.7183 53.9905 13.4647 53.7685 13.13C53.5497 12.7919 53.4403 12.371 53.4403 11.8672C53.4403 11.4429 53.5182 11.0866 53.674 10.7983C53.8298 10.5099 54.0419 10.2779 54.3104 10.1023C54.5788 9.92661 54.8838 9.79403 55.2251 9.70455C55.5698 9.61506 55.9311 9.55208 56.3089 9.51562C56.7531 9.46922 57.111 9.42614 57.3828 9.38636C57.6546 9.34328 57.8518 9.2803 57.9744 9.19744C58.0971 9.11458 58.1584 8.99195 58.1584 8.82955V8.79972C58.1584 8.48485 58.0589 8.24124 57.8601 8.06889C57.6645 7.89654 57.3861 7.81037 57.0249 7.81037C56.6437 7.81037 56.3404 7.89489 56.1151 8.06392C55.8897 8.22964 55.7405 8.43845 55.6676 8.69034L53.7088 8.53125C53.8082 8.06723 54.0038 7.66619 54.2955 7.32812C54.5871 6.98674 54.9633 6.7249 55.424 6.54261C55.888 6.35701 56.425 6.2642 57.0348 6.2642C57.459 6.2642 57.8651 6.31392 58.2528 6.41335C58.6439 6.51278 58.9903 6.6669 59.2919 6.87571C59.5968 7.08452 59.8371 7.35298 60.0128 7.68111C60.1884 8.00592 60.2763 8.39536 60.2763 8.84943V14H58.2678V12.9411H58.2081C58.0855 13.1797 57.9214 13.3902 57.7159 13.5724C57.5104 13.7514 57.2635 13.8923 56.9751 13.995C56.6868 14.0945 56.3537 14.1442 55.9759 14.1442ZM56.5824 12.6825C56.8939 12.6825 57.169 12.6212 57.4077 12.4986C57.6463 12.3726 57.8336 12.2036 57.9695 11.9915C58.1054 11.7794 58.1733 11.5391 58.1733 11.2706V10.4602C58.107 10.5033 58.0159 10.5431 57.8999 10.5795C57.7872 10.6127 57.6596 10.6442 57.517 10.674C57.3745 10.7005 57.232 10.7254 57.0895 10.7486C56.947 10.7685 56.8177 10.7867 56.7017 10.8033C56.4531 10.8397 56.236 10.8977 56.0504 10.9773C55.8648 11.0568 55.7206 11.1645 55.6179 11.3004C55.5152 11.433 55.4638 11.5987 55.4638 11.7976C55.4638 12.0859 55.5682 12.3063 55.777 12.4588C55.9891 12.608 56.2576 12.6825 56.5824 12.6825ZM65.3697 14.1491C64.5875 14.1491 63.9147 13.9834 63.3512 13.652C62.7911 13.3172 62.3602 12.8532 62.0586 12.2599C61.7603 11.6667 61.6112 10.9839 61.6112 10.2116C61.6112 9.42945 61.762 8.74337 62.0636 8.15341C62.3685 7.56013 62.801 7.09777 63.3612 6.76633C63.9213 6.43158 64.5875 6.2642 65.3597 6.2642C66.0259 6.2642 66.6093 6.38518 67.1097 6.62713C67.6102 6.86908 68.0063 7.20881 68.2979 7.64631C68.5896 8.08381 68.7504 8.59754 68.7802 9.1875H66.7816C66.7253 8.80634 66.5761 8.49976 66.3342 8.26776C66.0955 8.03243 65.7823 7.91477 65.3945 7.91477C65.0664 7.91477 64.7797 8.00426 64.5344 8.18324C64.2925 8.3589 64.1036 8.61577 63.9677 8.95384C63.8318 9.2919 63.7638 9.70123 63.7638 10.1818C63.7638 10.669 63.8301 11.0833 63.9627 11.4247C64.0986 11.7661 64.2892 12.0263 64.5344 12.2053C64.7797 12.3842 65.0664 12.4737 65.3945 12.4737C65.6365 12.4737 65.8536 12.424 66.0458 12.3246C66.2414 12.2251 66.4021 12.081 66.5281 11.892C66.6573 11.6998 66.7418 11.4695 66.7816 11.201H68.7802C68.747 11.7843 68.5879 12.2981 68.3029 12.7422C68.0212 13.183 67.6317 13.5277 67.1346 13.7763C66.6374 14.0249 66.0491 14.1491 65.3697 14.1491ZM70.1362 14V6.36364H72.2541V14H70.1362ZM71.2001 5.37926C70.8852 5.37926 70.6151 5.27486 70.3897 5.06605C70.1677 4.85393 70.0566 4.60038 70.0566 4.3054C70.0566 4.01373 70.1677 3.76349 70.3897 3.55469C70.6151 3.34257 70.8852 3.23651 71.2001 3.23651C71.515 3.23651 71.7834 3.34257 72.0055 3.55469C72.2309 3.76349 72.3436 4.01373 72.3436 4.3054C72.3436 4.60038 72.2309 4.85393 72.0055 5.06605C71.7834 5.27486 71.515 5.37926 71.2001 5.37926ZM77.4009 14.1491C76.6287 14.1491 75.9608 13.9851 75.3974 13.657C74.8372 13.3255 74.4047 12.8648 74.0998 12.2749C73.7949 11.6816 73.6424 10.9938 73.6424 10.2116C73.6424 9.42282 73.7949 8.73343 74.0998 8.14347C74.4047 7.55019 74.8372 7.08949 75.3974 6.76136C75.9608 6.42992 76.6287 6.2642 77.4009 6.2642C78.1732 6.2642 78.8394 6.42992 79.3995 6.76136C79.9629 7.08949 80.3971 7.55019 80.7021 8.14347C81.007 8.73343 81.1594 9.42282 81.1594 10.2116C81.1594 10.9938 81.007 11.6816 80.7021 12.2749C80.3971 12.8648 79.9629 13.3255 79.3995 13.657C78.8394 13.9851 78.1732 14.1491 77.4009 14.1491ZM77.4109 12.5085C77.7622 12.5085 78.0555 12.4091 78.2908 12.2102C78.5262 12.008 78.7035 11.733 78.8228 11.3849C78.9454 11.0369 79.0067 10.6409 79.0067 10.1967C79.0067 9.7526 78.9454 9.35653 78.8228 9.00852C78.7035 8.66051 78.5262 8.38542 78.2908 8.18324C78.0555 7.98106 77.7622 7.87997 77.4109 7.87997C77.0562 7.87997 76.7579 7.98106 76.516 8.18324C76.2773 8.38542 76.0967 8.66051 75.9741 9.00852C75.8548 9.35653 75.7951 9.7526 75.7951 10.1967C75.7951 10.6409 75.8548 11.0369 75.9741 11.3849C76.0967 11.733 76.2773 12.008 76.516 12.2102C76.7579 12.4091 77.0562 12.5085 77.4109 12.5085ZM76.6403 5.37926L77.6942 3.11719H79.6531L78.1367 5.37926H76.6403ZM84.6545 9.58523V14H82.5366V6.36364H84.555V7.71094H84.6445C84.8136 7.26681 85.0969 6.91548 85.4947 6.65696C85.8924 6.39512 86.3746 6.2642 86.9414 6.2642C87.4717 6.2642 87.9341 6.38021 88.3285 6.61222C88.7229 6.84422 89.0295 7.17566 89.2482 7.60653C89.467 8.03409 89.5763 8.54451 89.5763 9.13778V14H87.4585V9.51562C87.4618 9.0483 87.3424 8.68371 87.1005 8.42188C86.8585 8.15672 86.5254 8.02415 86.1012 8.02415C85.8162 8.02415 85.5643 8.08546 85.3455 8.2081C85.1301 8.33073 84.9611 8.50971 84.8384 8.74503C84.7191 8.97704 84.6578 9.2571 84.6545 9.58523ZM100.049 6.74645C100.009 6.34541 99.8385 6.03385 99.5369 5.81179C99.2353 5.58972 98.826 5.47869 98.3089 5.47869C97.9576 5.47869 97.661 5.52841 97.419 5.62784C97.1771 5.72396 96.9915 5.85819 96.8622 6.03054C96.7363 6.20289 96.6733 6.39844 96.6733 6.61719C96.6667 6.79948 96.7048 6.95857 96.7876 7.09446C96.8738 7.23035 96.9915 7.34801 97.1406 7.44744C97.2898 7.54356 97.4621 7.62808 97.6577 7.70099C97.8532 7.7706 98.062 7.83026 98.2841 7.87997L99.1989 8.09872C99.643 8.19815 100.051 8.33073 100.422 8.49645C100.793 8.66217 101.115 8.866 101.386 9.10795C101.658 9.34991 101.869 9.63494 102.018 9.96307C102.17 10.2912 102.248 10.6674 102.251 11.0916C102.248 11.7147 102.089 12.255 101.774 12.7124C101.463 13.1664 101.012 13.5194 100.422 13.7713C99.8352 14.0199 99.1276 14.1442 98.299 14.1442C97.477 14.1442 96.7611 14.0182 96.1513 13.7663C95.5447 13.5144 95.0708 13.1416 94.7294 12.6477C94.3913 12.1506 94.214 11.5357 94.1974 10.8033H96.2805C96.3037 11.1446 96.4015 11.4297 96.5739 11.6584C96.7495 11.8838 96.9832 12.0545 97.2749 12.1705C97.5698 12.2831 97.9029 12.3395 98.2741 12.3395C98.6387 12.3395 98.9553 12.2865 99.2237 12.1804C99.4955 12.0743 99.706 11.9268 99.8551 11.7379C100.004 11.549 100.079 11.3319 100.079 11.0866C100.079 10.858 100.011 10.6657 99.875 10.5099C99.7424 10.3542 99.5469 10.2216 99.2884 10.1122C99.0331 10.0028 98.7199 9.90341 98.3487 9.81392L97.2401 9.53551C96.3816 9.3267 95.7038 9.00024 95.2067 8.55611C94.7095 8.11198 94.4626 7.51373 94.4659 6.76136C94.4626 6.14489 94.6267 5.6063 94.9581 5.1456C95.2929 4.6849 95.7519 4.32528 96.3352 4.06676C96.9186 3.80824 97.5814 3.67898 98.3239 3.67898C99.0795 3.67898 99.7391 3.80824 100.303 4.06676C100.869 4.32528 101.31 4.6849 101.625 5.1456C101.94 5.6063 102.102 6.13991 102.112 6.74645H100.049ZM103.699 3.81818H106.354L109.158 10.6591H109.278L112.081 3.81818H114.736V14H112.648V7.37287H112.564L109.929 13.9503H108.507L105.872 7.34801H105.787V14H103.699V3.81818ZM122.033 6.74645C121.994 6.34541 121.823 6.03385 121.521 5.81179C121.22 5.58972 120.81 5.47869 120.293 5.47869C119.942 5.47869 119.645 5.52841 119.403 5.62784C119.161 5.72396 118.976 5.85819 118.847 6.03054C118.721 6.20289 118.658 6.39844 118.658 6.61719C118.651 6.79948 118.689 6.95857 118.772 7.09446C118.858 7.23035 118.976 7.34801 119.125 7.44744C119.274 7.54356 119.446 7.62808 119.642 7.70099C119.838 7.7706 120.046 7.83026 120.268 7.87997L121.183 8.09872C121.627 8.19815 122.035 8.33073 122.406 8.49645C122.777 8.66217 123.099 8.866 123.371 9.10795C123.643 9.34991 123.853 9.63494 124.002 9.96307C124.155 10.2912 124.232 10.6674 124.236 11.0916C124.232 11.7147 124.073 12.255 123.759 12.7124C123.447 13.1664 122.996 13.5194 122.406 13.7713C121.82 14.0199 121.112 14.1442 120.283 14.1442C119.461 14.1442 118.746 14.0182 118.136 13.7663C117.529 13.5144 117.055 13.1416 116.714 12.6477C116.376 12.1506 116.198 11.5357 116.182 10.8033H118.265C118.288 11.1446 118.386 11.4297 118.558 11.6584C118.734 11.8838 118.968 12.0545 119.259 12.1705C119.554 12.2831 119.887 12.3395 120.259 12.3395C120.623 12.3395 120.94 12.2865 121.208 12.1804C121.48 12.0743 121.69 11.9268 121.839 11.7379C121.989 11.549 122.063 11.3319 122.063 11.0866C122.063 10.858 121.995 10.6657 121.859 10.5099C121.727 10.3542 121.531 10.2216 121.273 10.1122C121.018 10.0028 120.704 9.90341 120.333 9.81392L119.224 9.53551C118.366 9.3267 117.688 9.00024 117.191 8.55611C116.694 8.11198 116.447 7.51373 116.45 6.76136C116.447 6.14489 116.611 5.6063 116.942 5.1456C117.277 4.6849 117.736 4.32528 118.32 4.06676C118.903 3.80824 119.566 3.67898 120.308 3.67898C121.064 3.67898 121.723 3.80824 122.287 4.06676C122.854 4.32528 123.295 4.6849 123.609 5.1456C123.924 5.6063 124.087 6.13991 124.097 6.74645H122.033Z" fill="#1A1A1A"/>
<path d="M5.9834 72.9585H3.49658V80H2.5835V72.9585H0.0966797V72.1475H5.9834V72.9585ZM9.52295 80.1074C8.65283 80.1074 7.96533 79.8424 7.46045 79.3125C6.95915 78.779 6.7085 78.0396 6.7085 77.0942C6.7085 76.1489 6.94124 75.3988 7.40674 74.8438C7.87581 74.2852 8.4917 74.0059 9.25439 74.0059C10.0207 74.0059 10.6169 74.2511 11.043 74.7417C11.4727 75.2179 11.6875 75.8553 11.6875 76.6538V77.2178H7.63232C7.65023 77.9053 7.82389 78.4299 8.15332 78.7915C8.48275 79.1496 8.95719 79.3286 9.57666 79.3286C10.1961 79.3286 10.8138 79.1961 11.4297 78.9312V79.7261C11.1182 79.8621 10.8192 79.9588 10.5327 80.0161C10.2498 80.077 9.91325 80.1074 9.52295 80.1074ZM10.7314 76.4927C10.7314 75.9341 10.6061 75.5062 10.3555 75.209C10.1048 74.9082 9.74495 74.7578 9.27588 74.7578C8.81038 74.7578 8.4362 74.91 8.15332 75.2144C7.87044 75.5187 7.70394 75.9448 7.65381 76.4927H10.7314ZM16.9619 71.6426V74.1724C16.9619 74.4696 16.9476 74.722 16.9189 74.9297H16.9727C17.1481 74.6432 17.3988 74.4194 17.7246 74.2583C18.0505 74.0972 18.4193 74.0166 18.8311 74.0166C19.5579 74.0166 20.0986 74.1903 20.4531 74.5376C20.8112 74.8849 20.9902 75.4256 20.9902 76.1597V80H20.0986V76.1919C20.0986 75.7085 19.9876 75.3504 19.7656 75.1177C19.5472 74.8849 19.207 74.7686 18.7451 74.7686C18.1185 74.7686 17.6637 74.9368 17.3809 75.2734C17.1016 75.6064 16.9619 76.1561 16.9619 76.9224V80H16.0703V71.6426H16.9619ZM25.314 80.1074C24.4438 80.1074 23.7563 79.8424 23.2515 79.3125C22.7502 78.779 22.4995 78.0396 22.4995 77.0942C22.4995 76.1489 22.7323 75.3988 23.1978 74.8438C23.6668 74.2852 24.2827 74.0059 25.0454 74.0059C25.8117 74.0059 26.4079 74.2511 26.834 74.7417C27.2637 75.2179 27.4785 75.8553 27.4785 76.6538V77.2178H23.4233C23.4412 77.9053 23.6149 78.4299 23.9443 78.7915C24.2738 79.1496 24.7482 79.3286 25.3677 79.3286C25.9871 79.3286 26.6048 79.1961 27.2207 78.9312V79.7261C26.9092 79.8621 26.6102 79.9588 26.3237 80.0161C26.0409 80.077 25.7043 80.1074 25.314 80.1074ZM26.5225 76.4927C26.5225 75.9341 26.3971 75.5062 26.1465 75.209C25.8958 74.9082 25.536 74.7578 25.0669 74.7578C24.6014 74.7578 24.2272 74.91 23.9443 75.2144C23.6615 75.5187 23.495 75.9448 23.4448 76.4927H26.5225ZM35.4062 74.0059C36.0794 74.0059 36.5789 74.1795 36.9048 74.5269C37.2342 74.8742 37.3989 75.4185 37.3989 76.1597V80H36.5073V76.1704C36.5073 75.6978 36.4053 75.3468 36.2012 75.1177C36.0007 74.8849 35.6909 74.7686 35.272 74.7686C34.717 74.7686 34.307 74.9279 34.042 75.2466C33.777 75.5617 33.6445 76.0505 33.6445 76.7129V80H32.7529V76.1704C32.7529 75.6978 32.6509 75.3468 32.4468 75.1177C32.2463 74.8849 31.9347 74.7686 31.5122 74.7686C30.95 74.7686 30.54 74.9351 30.2822 75.2681C30.0244 75.6011 29.8955 76.1489 29.8955 76.9116V80H29.0039V74.1133H29.729L29.874 74.9189H29.917C30.0853 74.6325 30.3216 74.4087 30.626 74.2476C30.9339 74.0864 31.2777 74.0059 31.6572 74.0059C32.5739 74.0059 33.1755 74.3389 33.4619 75.0049H33.5049C33.6803 74.6934 33.9346 74.4499 34.2676 74.2744C34.6042 74.0954 34.9837 74.0059 35.4062 74.0059ZM38.9082 77.0513C38.9082 76.0916 39.1463 75.3451 39.6226 74.8115C40.1024 74.2744 40.7612 74.0059 41.5991 74.0059C42.4406 74.0059 43.1012 74.2798 43.5811 74.8276C44.0716 75.3719 44.3169 76.1185 44.3169 77.0674C44.3169 78.0163 44.0752 78.7611 43.5918 79.3018C43.1084 79.8389 42.4406 80.1074 41.5884 80.1074C41.5741 80.1074 41.5597 80.1074 41.5454 80.1074C40.7684 80.1074 40.1346 79.8317 39.644 79.2803C39.1535 78.7288 38.9082 78.0109 38.9082 77.1265C38.9082 77.1014 38.9082 77.0763 38.9082 77.0513ZM41.5991 74.7686C40.4211 74.7686 39.832 75.5295 39.832 77.0513C39.832 77.8032 39.9824 78.3761 40.2832 78.77C40.5876 79.1639 41.0298 79.3608 41.6099 79.3608C42.1935 79.3608 42.6357 79.1657 42.9365 78.7754C43.2409 78.3815 43.3931 77.8086 43.3931 77.0566C43.3931 76.3047 43.2409 75.7354 42.9365 75.3486C42.6357 74.9619 42.1899 74.7686 41.5991 74.7686ZM47.3784 79.3716C48.3452 79.3716 48.8286 79.0708 48.8286 78.4692C48.8286 78.2401 48.7284 78.0449 48.5278 77.8838C48.3309 77.7191 47.9442 77.5257 47.3677 77.3037C46.8162 77.0996 46.4242 76.9206 46.1914 76.7666C45.9622 76.6126 45.7922 76.4408 45.6812 76.251C45.5701 76.0612 45.5146 75.8302 45.5146 75.5581C45.5146 75.0819 45.7098 74.7041 46.1001 74.4248C46.4904 74.1455 47.0132 74.0059 47.6685 74.0059C48.3237 74.0059 48.9557 74.1348 49.5645 74.3926L49.2476 75.1177C48.6603 74.8778 48.1411 74.7578 47.6899 74.7578C47.2424 74.7578 46.9093 74.8223 46.6909 74.9512C46.4725 75.0801 46.3633 75.2627 46.3633 75.499C46.3633 75.6566 46.4027 75.7909 46.4814 75.9019C46.5602 76.0129 46.6891 76.1185 46.8682 76.2188C47.0472 76.319 47.3927 76.464 47.9048 76.6538C48.603 76.908 49.0739 77.1641 49.3174 77.4219C49.5645 77.6797 49.688 78.0037 49.688 78.394C49.688 78.9419 49.4821 79.3644 49.0703 79.6616C48.6621 79.9588 48.0785 80.1074 47.3193 80.1074C46.5638 80.1074 45.9676 79.9839 45.5308 79.7368V78.9097C46.1395 79.2176 46.7554 79.3716 47.3784 79.3716ZM56.4771 80.1074C55.6069 80.1074 54.9194 79.8424 54.4146 79.3125C53.9132 78.779 53.6626 78.0396 53.6626 77.0942C53.6626 76.1489 53.8953 75.3988 54.3608 74.8438C54.8299 74.2852 55.4458 74.0059 56.2085 74.0059C56.9748 74.0059 57.571 74.2511 57.9971 74.7417C58.4268 75.2179 58.6416 75.8553 58.6416 76.6538V77.2178H54.5864C54.6043 77.9053 54.778 78.4299 55.1074 78.7915C55.4368 79.1496 55.9113 79.3286 56.5308 79.3286C57.1502 79.3286 57.7679 79.1961 58.3838 78.9312V79.7261C58.0723 79.8621 57.7733 79.9588 57.4868 80.0161C57.2039 80.077 56.8674 80.1074 56.4771 80.1074ZM57.6855 76.4927C57.6855 75.9341 57.5602 75.5062 57.3096 75.209C57.0589 74.9082 56.6991 74.7578 56.23 74.7578C55.7645 74.7578 55.3903 74.91 55.1074 75.2144C54.8245 75.5187 54.658 75.9448 54.6079 76.4927H57.6855ZM62.9492 74.0059C63.6654 74.0059 64.2007 74.1795 64.5552 74.5269C64.9097 74.8742 65.0869 75.4185 65.0869 76.1597V80H64.1953V76.1919C64.1953 75.7085 64.0843 75.3504 63.8623 75.1177C63.6439 74.8849 63.3037 74.7686 62.8418 74.7686C62.2223 74.7686 61.7694 74.9351 61.4829 75.2681C61.2 75.6011 61.0586 76.1489 61.0586 76.9116V80H60.167V74.1133H60.8921L61.0371 74.9189H61.0801C61.2627 74.6289 61.5169 74.4051 61.8428 74.2476C62.1722 74.0864 62.541 74.0059 62.9492 74.0059ZM69.2549 80H68.2129L65.9785 74.1133H66.9346L68.2021 77.6045C68.4958 78.4424 68.6641 78.9723 68.707 79.1943H68.75C68.7858 79.0081 68.9058 78.6268 69.1099 78.0503C69.314 77.4702 69.7884 76.1579 70.5332 74.1133H71.4893L69.2549 80ZM72.3594 72.5181C72.3594 72.3211 72.4077 72.1743 72.5044 72.0776C72.6011 71.9774 72.7264 71.9272 72.8804 71.9272C73.0343 71.9272 73.1615 71.9774 73.2617 72.0776C73.362 72.1779 73.4121 72.3247 73.4121 72.5181C73.4121 72.7114 73.362 72.86 73.2617 72.9639C73.1615 73.0641 73.0343 73.1143 72.8804 73.1143C72.7264 73.1143 72.6011 73.0641 72.5044 72.9639C72.4077 72.86 72.3594 72.7114 72.3594 72.5181ZM73.3262 80H72.4346V74.1133H73.3262V80ZM75.437 74.5215C76.0529 74.1849 76.7153 74.0166 77.4243 74.0166C78.1333 74.0166 78.6543 74.1742 78.9873 74.4893C79.3239 74.8008 79.4922 75.2985 79.4922 75.9824V80H78.8369L78.6597 79.1621H78.6167C78.3231 79.5309 78.0295 79.7816 77.7358 79.9141C77.4458 80.043 77.0824 80.1074 76.6455 80.1074C76.0618 80.1074 75.6035 79.957 75.2705 79.6562C74.9375 79.3519 74.771 78.924 74.771 78.3726C74.771 77.1873 75.7235 76.5643 77.6284 76.5034L78.6274 76.4712V76.106C78.6274 75.6405 78.5272 75.3003 78.3267 75.0854C78.1297 74.867 77.7967 74.7578 77.3276 74.7578C76.8586 74.7578 76.3197 74.9064 75.7109 75.2036L75.437 74.5215ZM75.7109 78.3833C75.7109 78.702 75.8076 78.9473 76.001 79.1191C76.1943 79.2874 76.4683 79.3716 76.8228 79.3716C77.3778 79.3716 77.8128 79.2194 78.1279 78.915C78.4466 78.6071 78.606 78.181 78.606 77.6367V77.105L77.7144 77.1426C77.0054 77.1676 76.4933 77.2786 76.1782 77.4756C75.8667 77.6689 75.7109 77.9715 75.7109 78.3833ZM86.1899 80H85.4648L85.3467 79.2104H85.2983C84.883 79.8084 84.2778 80.1074 83.4829 80.1074C82.6916 80.1074 82.0811 79.8442 81.6514 79.3179C81.2253 78.7879 81.0122 78.0396 81.0122 77.0728C81.0122 76.1024 81.2271 75.3486 81.6567 74.8115C82.0864 74.2744 82.6916 74.0059 83.4722 74.0059C84.2563 74.0059 84.8615 74.2959 85.2876 74.876H85.3574L85.3198 74.4517L85.2983 74.0381V71.6426H86.1899V80ZM85.2983 77.2607V77.0728C85.2983 76.2384 85.1587 75.644 84.8794 75.2896C84.6108 74.9351 84.1686 74.7578 83.5527 74.7578C83.0299 74.7578 82.6289 74.9601 82.3496 75.3647C82.0739 75.7658 81.936 76.3405 81.936 77.0889C81.936 77.8372 82.0739 78.403 82.3496 78.7861C82.6253 79.1693 83.0299 79.3608 83.5635 79.3608C84.1722 79.3608 84.6126 79.1961 84.8848 78.8667C85.1605 78.5337 85.2983 77.9984 85.2983 77.2607ZM87.7529 77.0513C87.7529 76.0916 87.991 75.3451 88.4673 74.8115C88.9471 74.2744 89.606 74.0059 90.4438 74.0059C91.2853 74.0059 91.946 74.2798 92.4258 74.8276C92.9163 75.3719 93.1616 76.1185 93.1616 77.0674C93.1616 78.0163 92.9199 78.7611 92.4365 79.3018C91.9531 79.8389 91.2853 80.1074 90.4331 80.1074C90.4188 80.1074 90.4045 80.1074 90.3901 80.1074C89.6131 80.1074 88.9793 79.8317 88.4888 79.2803C87.9982 78.7288 87.7529 78.0109 87.7529 77.1265C87.7529 77.1014 87.7529 77.0763 87.7529 77.0513ZM90.4438 74.7686C89.2658 74.7686 88.6768 75.5295 88.6768 77.0513C88.6768 77.8032 88.8271 78.3761 89.1279 78.77C89.4323 79.1639 89.8745 79.3608 90.4546 79.3608C91.0382 79.3608 91.4805 79.1657 91.7812 78.7754C92.0856 78.3815 92.2378 77.8086 92.2378 77.0566C92.2378 76.3047 92.0856 75.7354 91.7812 75.3486C91.4805 74.9619 91.0347 74.7686 90.4438 74.7686ZM102.454 80H101.718L101.589 79.2104H101.541C101.358 79.5005 101.105 79.7225 100.783 79.8765C100.461 80.0304 100.09 80.1074 99.6714 80.1074C98.9445 80.1074 98.4056 79.9373 98.0547 79.5972C97.7038 79.2534 97.5283 78.7091 97.5283 77.9644V74.1133H98.4307V77.9321C98.4307 78.4155 98.5399 78.7754 98.7583 79.0117C98.9803 79.2445 99.3223 79.3608 99.7842 79.3608C100.4 79.3608 100.849 79.1925 101.132 78.856C101.419 78.5158 101.562 77.9661 101.562 77.207V74.1133H102.454V80ZM107.132 74.0059C107.848 74.0059 108.383 74.1795 108.738 74.5269C109.092 74.8742 109.27 75.4185 109.27 76.1597V80H108.378V76.1919C108.378 75.7085 108.267 75.3504 108.045 75.1177C107.826 74.8849 107.486 74.7686 107.024 74.7686C106.405 74.7686 105.952 74.9351 105.666 75.2681C105.383 75.6011 105.241 76.1489 105.241 76.9116V80H104.35V74.1133H105.075L105.22 74.9189H105.263C105.445 74.6289 105.7 74.4051 106.025 74.2476C106.355 74.0864 106.724 74.0059 107.132 74.0059ZM116.316 80.1074C115.464 80.1074 114.804 79.846 114.334 79.3232C113.869 78.8005 113.636 78.0521 113.636 77.0781C113.636 76.1042 113.873 75.3486 114.345 74.8115C114.821 74.2744 115.498 74.0059 116.375 74.0059C116.648 74.0059 116.923 74.0363 117.203 74.0972C117.486 74.1545 117.715 74.2261 117.89 74.312L117.616 75.0693C117.416 74.9906 117.204 74.9261 116.982 74.876C116.76 74.8258 116.551 74.8008 116.354 74.8008C115.158 74.8008 114.56 75.5617 114.56 77.0835C114.56 77.8104 114.707 78.3672 115 78.7539C115.294 79.137 115.726 79.3286 116.295 79.3286C116.782 79.3286 117.285 79.223 117.804 79.0117V79.8013C117.403 80.0054 116.907 80.1074 116.316 80.1074ZM118.862 77.0513C118.862 76.0916 119.1 75.3451 119.577 74.8115C120.056 74.2744 120.715 74.0059 121.553 74.0059C122.395 74.0059 123.055 74.2798 123.535 74.8276C124.026 75.3719 124.271 76.1185 124.271 77.0674C124.271 78.0163 124.029 78.7611 123.546 79.3018C123.062 79.8389 122.395 80.1074 121.542 80.1074C121.528 80.1074 121.514 80.1074 121.5 80.1074C120.722 80.1074 120.089 79.8317 119.598 79.2803C119.108 78.7288 118.862 78.0109 118.862 77.1265C118.862 77.1014 118.862 77.0763 118.862 77.0513ZM121.553 74.7686C120.375 74.7686 119.786 75.5295 119.786 77.0513C119.786 77.8032 119.937 78.3761 120.237 78.77C120.542 79.1639 120.984 79.3608 121.564 79.3608C122.148 79.3608 122.59 79.1657 122.891 78.7754C123.195 78.3815 123.347 77.8086 123.347 77.0566C123.347 76.3047 123.195 75.7354 122.891 75.3486C122.59 74.9619 122.144 74.7686 121.553 74.7686ZM130.695 80H129.97L129.852 79.2104H129.803C129.388 79.8084 128.783 80.1074 127.988 80.1074C127.196 80.1074 126.586 79.8442 126.156 79.3179C125.73 78.7879 125.517 78.0396 125.517 77.0728C125.517 76.1024 125.732 75.3486 126.162 74.8115C126.591 74.2744 127.196 74.0059 127.977 74.0059C128.761 74.0059 129.366 74.2959 129.792 74.876H129.862L129.825 74.4517L129.803 74.0381V71.6426H130.695V80ZM129.803 77.2607V77.0728C129.803 76.2384 129.664 75.644 129.384 75.2896C129.116 74.9351 128.674 74.7578 128.058 74.7578C127.535 74.7578 127.134 74.9601 126.854 75.3647C126.579 75.7658 126.441 76.3405 126.441 77.0889C126.441 77.8372 126.579 78.403 126.854 78.7861C127.13 79.1693 127.535 79.3608 128.068 79.3608C128.677 79.3608 129.118 79.1961 129.39 78.8667C129.665 78.5337 129.803 77.9984 129.803 77.2607ZM132.516 72.5181C132.516 72.3211 132.564 72.1743 132.661 72.0776C132.757 71.9774 132.883 71.9272 133.037 71.9272C133.191 71.9272 133.318 71.9774 133.418 72.0776C133.518 72.1779 133.568 72.3247 133.568 72.5181C133.568 72.7114 133.518 72.86 133.418 72.9639C133.318 73.0641 133.191 73.1143 133.037 73.1143C132.883 73.1143 132.757 73.0641 132.661 72.9639C132.564 72.86 132.516 72.7114 132.516 72.5181ZM133.482 80H132.591V74.1133H133.482V80ZM137.092 79.0654H138.134C138.771 79.0654 139.26 79.1997 139.6 79.4683C139.944 79.7368 140.116 80.1271 140.116 80.6392C140.116 81.2909 139.854 81.7868 139.332 82.127C138.809 82.4707 138.046 82.6426 137.043 82.6426C136.274 82.6426 135.679 82.4993 135.26 82.2129C134.845 81.9264 134.637 81.5218 134.637 80.999C134.637 80.641 134.752 80.3312 134.981 80.0698C135.214 79.8084 135.536 79.6312 135.948 79.5381C135.79 79.4665 135.661 79.359 135.561 79.2158C135.464 79.0726 135.416 78.9025 135.416 78.7056C135.416 78.505 135.472 78.3242 135.583 78.1631C135.697 77.9984 135.88 77.8408 136.13 77.6904C135.83 77.5687 135.581 77.3556 135.384 77.0513C135.194 76.7469 135.099 76.4032 135.099 76.02C135.099 75.3791 135.292 74.8831 135.679 74.5322C136.066 74.1813 136.614 74.0059 137.323 74.0059C137.624 74.0059 137.901 74.0417 138.155 74.1133H140.191V74.6826L139.101 74.8062C139.358 75.132 139.487 75.5241 139.487 75.9824C139.487 76.5589 139.29 77.019 138.896 77.3628C138.503 77.7065 137.962 77.8784 137.274 77.8784C137.11 77.8784 136.945 77.8641 136.78 77.8354C136.401 78.0324 136.211 78.2848 136.211 78.5928C136.211 78.7575 136.279 78.8774 136.415 78.9526C136.551 79.0278 136.777 79.0654 137.092 79.0654ZM137.285 74.6611C136.863 74.6611 136.539 74.7739 136.313 74.9995C136.091 75.2251 135.98 75.5509 135.98 75.9771C135.98 76.3996 136.095 76.7183 136.324 76.9331C136.556 77.1444 136.882 77.25 137.301 77.25C138.171 77.25 138.606 76.8275 138.606 75.9824C138.606 75.1016 138.166 74.6611 137.285 74.6611ZM137.849 79.8657H136.78C136.372 79.8657 136.055 79.9624 135.83 80.1558C135.608 80.3491 135.497 80.6159 135.497 80.9561C135.497 81.6257 136.016 81.9604 137.054 81.9604C137.788 81.9604 138.338 81.8512 138.703 81.6328C139.072 81.4144 139.256 81.1082 139.256 80.7144C139.256 80.3921 139.158 80.1701 138.961 80.0483C138.764 79.9266 138.393 79.8657 137.849 79.8657ZM141.066 77.0513C141.066 76.0916 141.305 75.3451 141.781 74.8115C142.261 74.2744 142.919 74.0059 143.757 74.0059C144.599 74.0059 145.259 74.2798 145.739 74.8276C146.23 75.3719 146.475 76.1185 146.475 77.0674C146.475 78.0163 146.233 78.7611 145.75 79.3018C145.267 79.8389 144.599 80.1074 143.747 80.1074C143.732 80.1074 143.718 80.1074 143.704 80.1074C142.927 80.1074 142.293 79.8317 141.802 79.2803C141.312 78.7288 141.066 78.0109 141.066 77.1265C141.066 77.1014 141.066 77.0763 141.066 77.0513ZM143.757 74.7686C142.579 74.7686 141.99 75.5295 141.99 77.0513C141.99 77.8032 142.141 78.3761 142.441 78.77C142.746 79.1639 143.188 79.3608 143.768 79.3608C144.352 79.3608 144.794 79.1657 145.095 78.7754C145.399 78.3815 145.551 77.8086 145.551 77.0566C145.551 76.3047 145.399 75.7354 145.095 75.3486C144.794 74.9619 144.348 74.7686 143.757 74.7686ZM151.126 74.5215C151.742 74.1849 152.405 74.0166 153.114 74.0166C153.823 74.0166 154.344 74.1742 154.677 74.4893C155.013 74.8008 155.182 75.2985 155.182 75.9824V80H154.526L154.349 79.1621H154.306C154.013 79.5309 153.719 79.7816 153.425 79.9141C153.135 80.043 152.772 80.1074 152.335 80.1074C151.751 80.1074 151.293 79.957 150.96 79.6562C150.627 79.3519 150.46 78.924 150.46 78.3726C150.46 77.1873 151.413 76.5643 153.318 76.5034L154.317 76.4712V76.106C154.317 75.6405 154.217 75.3003 154.016 75.0854C153.819 74.867 153.486 74.7578 153.017 74.7578C152.548 74.7578 152.009 74.9064 151.4 75.2036L151.126 74.5215ZM151.4 78.3833C151.4 78.702 151.497 78.9473 151.69 79.1191C151.884 79.2874 152.158 79.3716 152.512 79.3716C153.067 79.3716 153.502 79.2194 153.817 78.915C154.136 78.6071 154.295 78.181 154.295 77.6367V77.105L153.404 77.1426C152.695 77.1676 152.183 77.2786 151.868 77.4756C151.556 77.6689 151.4 77.9715 151.4 78.3833ZM160.843 74.1133H162.551V74.8062H160.843V78.2705C160.843 78.6214 160.925 78.8936 161.09 79.0869C161.258 79.2767 161.487 79.3716 161.777 79.3716C162.067 79.3716 162.34 79.3358 162.594 79.2642V79.9517C162.508 79.9946 162.368 80.0304 162.175 80.0591C161.981 80.0913 161.81 80.1074 161.659 80.1074C160.521 80.1074 159.951 79.5076 159.951 78.3081V74.8062H159.108V74.3765L159.951 74.0059L160.327 72.749H160.843V74.1133ZM168.636 80H167.9L167.771 79.2104H167.723C167.541 79.5005 167.288 79.7225 166.966 79.8765C166.644 80.0304 166.273 80.1074 165.854 80.1074C165.127 80.1074 164.588 79.9373 164.237 79.5972C163.886 79.2534 163.711 78.7091 163.711 77.9644V74.1133H164.613V77.9321C164.613 78.4155 164.722 78.7754 164.941 79.0117C165.163 79.2445 165.505 79.3608 165.967 79.3608C166.583 79.3608 167.032 79.1925 167.315 78.856C167.601 78.5158 167.745 77.9661 167.745 77.207V74.1133H168.636V80ZM174.346 74.1133H176.054V74.8062H174.346V78.2705C174.346 78.6214 174.428 78.8936 174.593 79.0869C174.761 79.2767 174.99 79.3716 175.28 79.3716C175.57 79.3716 175.842 79.3358 176.097 79.2642V79.9517C176.011 79.9946 175.871 80.0304 175.678 80.0591C175.484 80.0913 175.312 80.1074 175.162 80.1074C174.023 80.1074 173.454 79.5076 173.454 78.3081V74.8062H172.611V74.3765L173.454 74.0059L173.83 72.749H174.346V74.1133ZM179.765 80.1074C178.895 80.1074 178.208 79.8424 177.703 79.3125C177.201 78.779 176.951 78.0396 176.951 77.0942C176.951 76.1489 177.183 75.3988 177.649 74.8438C178.118 74.2852 178.734 74.0059 179.497 74.0059C180.263 74.0059 180.859 74.2511 181.285 74.7417C181.715 75.2179 181.93 75.8553 181.93 76.6538V77.2178H177.875C177.892 77.9053 178.066 78.4299 178.396 78.7915C178.725 79.1496 179.199 79.3286 179.819 79.3286C180.438 79.3286 181.056 79.1961 181.672 78.9312V79.7261C181.36 79.8621 181.061 79.9588 180.775 80.0161C180.492 80.077 180.155 80.1074 179.765 80.1074ZM180.974 76.4927C180.974 75.9341 180.848 75.5062 180.598 75.209C180.347 74.9082 179.987 74.7578 179.518 74.7578C179.053 74.7578 178.678 74.91 178.396 75.2144C178.113 75.5187 177.946 75.9448 177.896 76.4927H180.974ZM184.347 80H183.455V71.6426H184.347V80ZM188.724 80.1074C187.854 80.1074 187.167 79.8424 186.662 79.3125C186.16 78.779 185.91 78.0396 185.91 77.0942C185.91 76.1489 186.142 75.3988 186.608 74.8438C187.077 74.2852 187.693 74.0059 188.456 74.0059C189.222 74.0059 189.818 74.2511 190.244 74.7417C190.674 75.2179 190.889 75.8553 190.889 76.6538V77.2178H186.833C186.851 77.9053 187.025 78.4299 187.354 78.7915C187.684 79.1496 188.158 79.3286 188.778 79.3286C189.397 79.3286 190.015 79.1961 190.631 78.9312V79.7261C190.319 79.8621 190.02 79.9588 189.734 80.0161C189.451 80.077 189.114 80.1074 188.724 80.1074ZM189.933 76.4927C189.933 75.9341 189.807 75.5062 189.557 75.209C189.306 74.9082 188.946 74.7578 188.477 74.7578C188.012 74.7578 187.637 74.91 187.354 75.2144C187.072 75.5187 186.905 75.9448 186.855 76.4927H189.933ZM192.677 73.7534C192.677 72.3068 193.309 71.5835 194.573 71.5835C194.878 71.5835 195.243 71.6462 195.669 71.7715L195.438 72.4858C195.101 72.3748 194.808 72.3193 194.557 72.3193C194.221 72.3193 193.972 72.4321 193.811 72.6577C193.649 72.8833 193.569 73.2414 193.569 73.7319V74.1133H195.067V74.8062H193.569V80H192.677V74.8062H191.625V74.4033L192.677 74.0811V73.7534ZM195.809 77.0513C195.809 76.0916 196.047 75.3451 196.523 74.8115C197.003 74.2744 197.662 74.0059 198.5 74.0059C199.341 74.0059 200.002 74.2798 200.481 74.8276C200.972 75.3719 201.217 76.1185 201.217 77.0674C201.217 78.0163 200.976 78.7611 200.492 79.3018C200.009 79.8389 199.341 80.1074 198.489 80.1074C198.474 80.1074 198.46 80.1074 198.446 80.1074C197.669 80.1074 197.035 79.8317 196.544 79.2803C196.054 78.7288 195.809 78.0109 195.809 77.1265C195.809 77.1014 195.809 77.0763 195.809 77.0513ZM198.5 74.7686C197.321 74.7686 196.732 75.5295 196.732 77.0513C196.732 77.8032 196.883 78.3761 197.184 78.77C197.488 79.1639 197.93 79.3608 198.51 79.3608C199.094 79.3608 199.536 79.1657 199.837 78.7754C200.141 78.3815 200.293 77.8086 200.293 77.0566C200.293 76.3047 200.141 75.7354 199.837 75.3486C199.536 74.9619 199.09 74.7686 198.5 74.7686ZM205.573 74.0059C206.289 74.0059 206.825 74.1795 207.179 74.5269C207.534 74.8742 207.711 75.4185 207.711 76.1597V80H206.819V76.1919C206.819 75.7085 206.708 75.3504 206.486 75.1177C206.268 74.8849 205.928 74.7686 205.466 74.7686C204.846 74.7686 204.393 74.9351 204.107 75.2681C203.824 75.6011 203.683 76.1489 203.683 76.9116V80H202.791V74.1133H203.516L203.661 74.9189H203.704C203.887 74.6289 204.141 74.4051 204.467 74.2476C204.796 74.0864 205.165 74.0059 205.573 74.0059ZM209.215 77.0513C209.215 76.0916 209.453 75.3451 209.929 74.8115C210.409 74.2744 211.068 74.0059 211.906 74.0059C212.747 74.0059 213.408 74.2798 213.888 74.8276C214.378 75.3719 214.624 76.1185 214.624 77.0674C214.624 78.0163 214.382 78.7611 213.898 79.3018C213.415 79.8389 212.747 80.1074 211.895 80.1074C211.881 80.1074 211.866 80.1074 211.852 80.1074C211.075 80.1074 210.441 79.8317 209.951 79.2803C209.46 78.7288 209.215 78.0109 209.215 77.1265C209.215 77.1014 209.215 77.0763 209.215 77.0513ZM211.906 74.7686C210.728 74.7686 210.139 75.5295 210.139 77.0513C210.139 77.8032 210.289 78.3761 210.59 78.77C210.894 79.1639 211.336 79.3608 211.917 79.3608C212.5 79.3608 212.942 79.1657 213.243 78.7754C213.548 78.3815 213.7 77.8086 213.7 77.0566C213.7 76.3047 213.548 75.7354 213.243 75.3486C212.942 74.9619 212.497 74.7686 211.906 74.7686ZM219.946 74.9189C220.376 74.3102 220.985 74.0059 221.772 74.0059C222.564 74.0059 223.173 74.2726 223.599 74.8062C224.025 75.3397 224.238 76.0898 224.238 77.0566C224.238 78.0234 224.021 78.7736 223.588 79.3071C223.158 79.8407 222.549 80.1074 221.762 80.1074C220.974 80.1074 220.369 79.8192 219.946 79.2427H219.882C219.925 79.5864 219.946 79.9123 219.946 80.2202V82.6426H219.055V74.1133H219.78L219.903 74.9189H219.946ZM219.946 77.0513C219.946 77.8748 220.084 78.4674 220.36 78.8291C220.636 79.1836 221.078 79.3608 221.687 79.3608C222.199 79.3608 222.596 79.1567 222.879 78.7485C223.165 78.3368 223.309 77.7674 223.309 77.0405C223.309 76.3101 223.165 75.7497 222.879 75.3594C222.596 74.9655 222.191 74.7686 221.665 74.7686C221.06 74.7686 220.623 74.9351 220.354 75.2681C220.086 75.6011 219.95 76.1292 219.946 76.8525V77.0513ZM226.021 74.5215C226.637 74.1849 227.299 74.0166 228.008 74.0166C228.717 74.0166 229.238 74.1742 229.571 74.4893C229.908 74.8008 230.076 75.2985 230.076 75.9824V80H229.421L229.244 79.1621H229.201C228.907 79.5309 228.613 79.7816 228.32 79.9141C228.03 80.043 227.666 80.1074 227.229 80.1074C226.646 80.1074 226.188 79.957 225.854 79.6562C225.521 79.3519 225.355 78.924 225.355 78.3726C225.355 77.1873 226.307 76.5643 228.212 76.5034L229.211 76.4712V76.106C229.211 75.6405 229.111 75.3003 228.911 75.0854C228.714 74.867 228.381 74.7578 227.912 74.7578C227.443 74.7578 226.904 74.9064 226.295 75.2036L226.021 74.5215ZM226.295 78.3833C226.295 78.702 226.392 78.9473 226.585 79.1191C226.778 79.2874 227.052 79.3716 227.407 79.3716C227.962 79.3716 228.397 79.2194 228.712 78.915C229.031 78.6071 229.19 78.181 229.19 77.6367V77.105L228.298 77.1426C227.589 77.1676 227.077 77.2786 226.762 77.4756C226.451 77.6689 226.295 77.9715 226.295 78.3833ZM234.609 74.0059C234.867 74.0059 235.102 74.0273 235.313 74.0703L235.189 74.8975C234.946 74.8438 234.731 74.8169 234.545 74.8169C234.065 74.8169 233.657 75.0103 233.32 75.397C232.984 75.7801 232.815 76.2617 232.815 76.8418V80H231.924V74.1133H232.66L232.762 75.2036H232.805C233.023 74.8169 233.286 74.5215 233.594 74.3174C233.906 74.1097 234.244 74.0059 234.609 74.0059ZM236.634 74.5215C237.25 74.1849 237.913 74.0166 238.622 74.0166C239.331 74.0166 239.852 74.1742 240.185 74.4893C240.521 74.8008 240.689 75.2985 240.689 75.9824V80H240.034L239.857 79.1621H239.814C239.52 79.5309 239.227 79.7816 238.933 79.9141C238.643 80.043 238.28 80.1074 237.843 80.1074C237.259 80.1074 236.801 79.957 236.468 79.6562C236.135 79.3519 235.968 78.924 235.968 78.3726C235.968 77.1873 236.921 76.5643 238.826 76.5034L239.825 76.4712V76.106C239.825 75.6405 239.724 75.3003 239.524 75.0854C239.327 74.867 238.994 74.7578 238.525 74.7578C238.056 74.7578 237.517 74.9064 236.908 75.2036L236.634 74.5215ZM236.908 78.3833C236.908 78.702 237.005 78.9473 237.198 79.1191C237.392 79.2874 237.666 79.3716 238.02 79.3716C238.575 79.3716 239.01 79.2194 239.325 78.915C239.644 78.6071 239.803 78.181 239.803 77.6367V77.105L238.912 77.1426C238.203 77.1676 237.691 77.2786 237.375 77.4756C237.064 77.6689 236.908 77.9715 236.908 78.3833ZM3.27637 95H2.23438L0 89.1133H0.956055L2.22363 92.6045C2.51725 93.4424 2.68555 93.9723 2.72852 94.1943H2.77148C2.80729 94.0081 2.92725 93.6268 3.13135 93.0503C3.33545 92.4702 3.8099 91.1579 4.55469 89.1133H5.51074L3.27637 95ZM8.94287 95.1074C8.07275 95.1074 7.38525 94.8424 6.88037 94.3125C6.37907 93.779 6.12842 93.0396 6.12842 92.0942C6.12842 91.1489 6.36117 90.3988 6.82666 89.8438C7.29574 89.2852 7.91162 89.0059 8.67432 89.0059C9.44059 89.0059 10.0368 89.2511 10.4629 89.7417C10.8926 90.2179 11.1074 90.8553 11.1074 91.6538V92.2178H7.05225C7.07015 92.9053 7.24382 93.4299 7.57324 93.7915C7.90267 94.1496 8.37712 94.3286 8.99658 94.3286C9.61605 94.3286 10.2337 94.1961 10.8496 93.9312V94.7261C10.5381 94.8621 10.2391 94.9588 9.95264 95.0161C9.66976 95.077 9.33317 95.1074 8.94287 95.1074ZM10.1514 91.4927C10.1514 90.9341 10.026 90.5062 9.77539 90.209C9.52474 89.9082 9.16488 89.7578 8.6958 89.7578C8.23031 89.7578 7.85612 89.91 7.57324 90.2144C7.29036 90.5187 7.12386 90.9448 7.07373 91.4927H10.1514ZM15.3184 89.0059C15.5762 89.0059 15.8107 89.0273 16.022 89.0703L15.8984 89.8975C15.6549 89.8438 15.4401 89.8169 15.2539 89.8169C14.7741 89.8169 14.3659 90.0103 14.0293 90.397C13.6927 90.7801 13.5244 91.2617 13.5244 91.8418V95H12.6328V89.1133H13.3687L13.4707 90.2036H13.5137C13.7321 89.8169 13.9953 89.5215 14.3032 89.3174C14.6147 89.1097 14.9531 89.0059 15.3184 89.0059ZM17.0479 87.5181C17.0479 87.3211 17.0962 87.1743 17.1929 87.0776C17.2896 86.9774 17.4149 86.9272 17.5688 86.9272C17.7228 86.9272 17.8499 86.9774 17.9502 87.0776C18.0505 87.1779 18.1006 87.3247 18.1006 87.5181C18.1006 87.7114 18.0505 87.86 17.9502 87.9639C17.8499 88.0641 17.7228 88.1143 17.5688 88.1143C17.4149 88.1143 17.2896 88.0641 17.1929 87.9639C17.0962 87.86 17.0479 87.7114 17.0479 87.5181ZM18.0146 95H17.123V89.1133H18.0146V95ZM20.1685 88.7534C20.1685 87.3068 20.8005 86.5835 22.0645 86.5835C22.3688 86.5835 22.734 86.6462 23.1602 86.7715L22.9292 87.4858C22.5926 87.3748 22.299 87.3193 22.0483 87.3193C21.7118 87.3193 21.4629 87.4321 21.3018 87.6577C21.1406 87.8833 21.0601 88.2414 21.0601 88.7319V89.1133H22.5586V89.8062H21.0601V95H20.1685V89.8062H19.1157V89.4033L20.1685 89.0811V88.7534ZM23.5576 87.5181C23.5576 87.3211 23.606 87.1743 23.7026 87.0776C23.7993 86.9774 23.9246 86.9272 24.0786 86.9272C24.2326 86.9272 24.3597 86.9774 24.46 87.0776C24.5602 87.1779 24.6104 87.3247 24.6104 87.5181C24.6104 87.7114 24.5602 87.86 24.46 87.9639C24.3597 88.0641 24.2326 88.1143 24.0786 88.1143C23.9246 88.1143 23.7993 88.0641 23.7026 87.9639C23.606 87.86 23.5576 87.7114 23.5576 87.5181ZM24.5244 95H23.6328V89.1133H24.5244V95ZM28.7676 95.1074C27.9154 95.1074 27.2547 94.846 26.7856 94.3232C26.3201 93.8005 26.0874 93.0521 26.0874 92.0781C26.0874 91.1042 26.3237 90.3486 26.7964 89.8115C27.2726 89.2744 27.9494 89.0059 28.8267 89.0059C29.0988 89.0059 29.3745 89.0363 29.6538 89.0972C29.9367 89.1545 30.1659 89.2261 30.3413 89.312L30.0674 90.0693C29.8669 89.9906 29.6556 89.9261 29.4336 89.876C29.2116 89.8258 29.0021 89.8008 28.8052 89.8008C27.6092 89.8008 27.0112 90.5617 27.0112 92.0835C27.0112 92.8104 27.158 93.3672 27.4517 93.7539C27.7453 94.137 28.1768 94.3286 28.7461 94.3286C29.2331 94.3286 29.7362 94.223 30.2554 94.0117V94.8013C29.8543 95.0054 29.3584 95.1074 28.7676 95.1074ZM31.8667 89.5215C32.4826 89.1849 33.145 89.0166 33.854 89.0166C34.563 89.0166 35.084 89.1742 35.417 89.4893C35.7536 89.8008 35.9219 90.2985 35.9219 90.9824V95H35.2666L35.0894 94.1621H35.0464C34.7528 94.5309 34.4591 94.7816 34.1655 94.9141C33.8755 95.043 33.512 95.1074 33.0752 95.1074C32.4915 95.1074 32.0332 94.957 31.7002 94.6562C31.3672 94.3519 31.2007 93.924 31.2007 93.3726C31.2007 92.1873 32.1532 91.5643 34.0581 91.5034L35.0571 91.4712V91.106C35.0571 90.6405 34.9569 90.3003 34.7563 90.0854C34.5594 89.867 34.2264 89.7578 33.7573 89.7578C33.2882 89.7578 32.7493 89.9064 32.1406 90.2036L31.8667 89.5215ZM32.1406 93.3833C32.1406 93.702 32.2373 93.9473 32.4307 94.1191C32.624 94.2874 32.8979 94.3716 33.2524 94.3716C33.8075 94.3716 34.2425 94.2194 34.5576 93.915C34.8763 93.6071 35.0356 93.181 35.0356 92.6367V92.105L34.144 92.1426C33.4351 92.1676 32.923 92.2786 32.6079 92.4756C32.2964 92.6689 32.1406 92.9715 32.1406 93.3833ZM40.4551 89.0059C40.7129 89.0059 40.9474 89.0273 41.1587 89.0703L41.0352 89.8975C40.7917 89.8438 40.5768 89.8169 40.3906 89.8169C39.9108 89.8169 39.5026 90.0103 39.166 90.397C38.8294 90.7801 38.6611 91.2617 38.6611 91.8418V95H37.7695V89.1133H38.5054L38.6074 90.2036H38.6504C38.8688 89.8169 39.132 89.5215 39.4399 89.3174C39.7515 89.1097 40.0898 89.0059 40.4551 89.0059ZM46.0732 89.1133H47.7812V89.8062H46.0732V93.2705C46.0732 93.6214 46.1556 93.8936 46.3203 94.0869C46.4886 94.2767 46.7178 94.3716 47.0078 94.3716C47.2979 94.3716 47.57 94.3358 47.8242 94.2642V94.9517C47.7383 94.9946 47.5986 95.0304 47.4053 95.0591C47.2119 95.0913 47.04 95.1074 46.8896 95.1074C45.751 95.1074 45.1816 94.5076 45.1816 93.3081V89.8062H44.3384V89.3765L45.1816 89.0059L45.5576 87.749H46.0732V89.1133ZM53.8667 95H53.1309L53.002 94.2104H52.9536C52.771 94.5005 52.5186 94.7225 52.1963 94.8765C51.874 95.0304 51.5034 95.1074 51.0845 95.1074C50.3576 95.1074 49.8187 94.9373 49.4678 94.5972C49.1169 94.2534 48.9414 93.7091 48.9414 92.9644V89.1133H49.8438V92.9321C49.8438 93.4155 49.953 93.7754 50.1714 94.0117C50.3934 94.2445 50.7354 94.3608 51.1973 94.3608C51.8132 94.3608 52.2625 94.1925 52.5454 93.856C52.8319 93.5158 52.9751 92.9661 52.9751 92.207V89.1133H53.8667V95ZM58.5449 87.5181C58.5449 87.3211 58.5933 87.1743 58.6899 87.0776C58.7866 86.9774 58.9119 86.9272 59.0659 86.9272C59.2199 86.9272 59.347 86.9774 59.4473 87.0776C59.5475 87.1779 59.5977 87.3247 59.5977 87.5181C59.5977 87.7114 59.5475 87.86 59.4473 87.9639C59.347 88.0641 59.2199 88.1143 59.0659 88.1143C58.9119 88.1143 58.7866 88.0641 58.6899 87.9639C58.5933 87.86 58.5449 87.7114 58.5449 87.5181ZM59.5117 95H58.6201V89.1133H59.5117V95ZM66.2524 95H65.5273L65.4092 94.2104H65.3608C64.9455 94.8084 64.3403 95.1074 63.5454 95.1074C62.7541 95.1074 62.1436 94.8442 61.7139 94.3179C61.2878 93.7879 61.0747 93.0396 61.0747 92.0728C61.0747 91.1024 61.2896 90.3486 61.7192 89.8115C62.1489 89.2744 62.7541 89.0059 63.5347 89.0059C64.3188 89.0059 64.924 89.2959 65.3501 89.876H65.4199L65.3823 89.4517L65.3608 89.0381V86.6426H66.2524V95ZM65.3608 92.2607V92.0728C65.3608 91.2384 65.2212 90.644 64.9419 90.2896C64.6733 89.9351 64.2311 89.7578 63.6152 89.7578C63.0924 89.7578 62.6914 89.9601 62.4121 90.3647C62.1364 90.7658 61.9985 91.3405 61.9985 92.0889C61.9985 92.8372 62.1364 93.403 62.4121 93.7861C62.6878 94.1693 63.0924 94.3608 63.626 94.3608C64.2347 94.3608 64.6751 94.1961 64.9473 93.8667C65.223 93.5337 65.3608 92.9984 65.3608 92.2607ZM70.6353 95.1074C69.7651 95.1074 69.0776 94.8424 68.5728 94.3125C68.0715 93.779 67.8208 93.0396 67.8208 92.0942C67.8208 91.1489 68.0535 90.3988 68.519 89.8438C68.9881 89.2852 69.604 89.0059 70.3667 89.0059C71.133 89.0059 71.7292 89.2511 72.1553 89.7417C72.585 90.2179 72.7998 90.8553 72.7998 91.6538V92.2178H68.7446C68.7625 92.9053 68.9362 93.4299 69.2656 93.7915C69.5951 94.1496 70.0695 94.3286 70.689 94.3286C71.3084 94.3286 71.9261 94.1961 72.542 93.9312V94.7261C72.2305 94.8621 71.9315 94.9588 71.645 95.0161C71.3621 95.077 71.0256 95.1074 70.6353 95.1074ZM71.8438 91.4927C71.8438 90.9341 71.7184 90.5062 71.4678 90.209C71.2171 89.9082 70.8573 89.7578 70.3882 89.7578C69.9227 89.7578 69.5485 89.91 69.2656 90.2144C68.9827 90.5187 68.8162 90.9448 68.7661 91.4927H71.8438ZM77.1074 89.0059C77.8236 89.0059 78.3589 89.1795 78.7134 89.5269C79.0679 89.8742 79.2451 90.4185 79.2451 91.1597V95H78.3535V91.1919C78.3535 90.7085 78.2425 90.3504 78.0205 90.1177C77.8021 89.8849 77.4619 89.7686 77 89.7686C76.3805 89.7686 75.9276 89.9351 75.6411 90.2681C75.3582 90.6011 75.2168 91.1489 75.2168 91.9116V95H74.3252V89.1133H75.0503L75.1953 89.9189H75.2383C75.4209 89.6289 75.6751 89.4051 76.001 89.2476C76.3304 89.0864 76.6992 89.0059 77.1074 89.0059ZM82.0381 89.1133H83.7461V89.8062H82.0381V93.2705C82.0381 93.6214 82.1204 93.8936 82.2852 94.0869C82.4535 94.2767 82.6826 94.3716 82.9727 94.3716C83.2627 94.3716 83.5348 94.3358 83.7891 94.2642V94.9517C83.7031 94.9946 83.5635 95.0304 83.3701 95.0591C83.1768 95.0913 83.0049 95.1074 82.8545 95.1074C81.7158 95.1074 81.1465 94.5076 81.1465 93.3081V89.8062H80.3032V89.3765L81.1465 89.0059L81.5225 87.749H82.0381V89.1133ZM84.8955 87.5181C84.8955 87.3211 84.9438 87.1743 85.0405 87.0776C85.1372 86.9774 85.2625 86.9272 85.4165 86.9272C85.5705 86.9272 85.6976 86.9774 85.7979 87.0776C85.8981 87.1779 85.9482 87.3247 85.9482 87.5181C85.9482 87.7114 85.8981 87.86 85.7979 87.9639C85.6976 88.0641 85.5705 88.1143 85.4165 88.1143C85.2625 88.1143 85.1372 88.0641 85.0405 87.9639C84.9438 87.86 84.8955 87.7114 84.8955 87.5181ZM85.8623 95H84.9707V89.1133H85.8623V95ZM92.603 95H91.8779L91.7598 94.2104H91.7114C91.2961 94.8084 90.6909 95.1074 89.896 95.1074C89.1047 95.1074 88.4941 94.8442 88.0645 94.3179C87.6383 93.7879 87.4253 93.0396 87.4253 92.0728C87.4253 91.1024 87.6401 90.3486 88.0698 89.8115C88.4995 89.2744 89.1047 89.0059 89.8853 89.0059C90.6694 89.0059 91.2746 89.2959 91.7007 89.876H91.7705L91.7329 89.4517L91.7114 89.0381V86.6426H92.603V95ZM91.7114 92.2607V92.0728C91.7114 91.2384 91.5718 90.644 91.2925 90.2896C91.0239 89.9351 90.5817 89.7578 89.9658 89.7578C89.443 89.7578 89.042 89.9601 88.7627 90.3647C88.487 90.7658 88.3491 91.3405 88.3491 92.0889C88.3491 92.8372 88.487 93.403 88.7627 93.7861C89.0384 94.1693 89.443 94.3608 89.9766 94.3608C90.5853 94.3608 91.0257 94.1961 91.2979 93.8667C91.5736 93.5337 91.7114 92.9984 91.7114 92.2607ZM94.7192 89.5215C95.3351 89.1849 95.9976 89.0166 96.7065 89.0166C97.4155 89.0166 97.9365 89.1742 98.2695 89.4893C98.6061 89.8008 98.7744 90.2985 98.7744 90.9824V95H98.1191L97.9419 94.1621H97.8989C97.6053 94.5309 97.3117 94.7816 97.0181 94.9141C96.728 95.043 96.3646 95.1074 95.9277 95.1074C95.3441 95.1074 94.8857 94.957 94.5527 94.6562C94.2197 94.3519 94.0532 93.924 94.0532 93.3726C94.0532 92.1873 95.0057 91.5643 96.9106 91.5034L97.9097 91.4712V91.106C97.9097 90.6405 97.8094 90.3003 97.6089 90.0854C97.4119 89.867 97.0789 89.7578 96.6099 89.7578C96.1408 89.7578 95.6019 89.9064 94.9932 90.2036L94.7192 89.5215ZM94.9932 93.3833C94.9932 93.702 95.0898 93.9473 95.2832 94.1191C95.4766 94.2874 95.7505 94.3716 96.105 94.3716C96.66 94.3716 97.0951 94.2194 97.4102 93.915C97.7288 93.6071 97.8882 93.181 97.8882 92.6367V92.105L96.9966 92.1426C96.2876 92.1676 95.7756 92.2786 95.4604 92.4756C95.1489 92.6689 94.9932 92.9715 94.9932 93.3833ZM105.472 95H104.747L104.629 94.2104H104.581C104.165 94.8084 103.56 95.1074 102.765 95.1074C101.974 95.1074 101.363 94.8442 100.934 94.3179C100.507 93.7879 100.294 93.0396 100.294 92.0728C100.294 91.1024 100.509 90.3486 100.939 89.8115C101.369 89.2744 101.974 89.0059 102.754 89.0059C103.539 89.0059 104.144 89.2959 104.57 89.876H104.64L104.602 89.4517L104.581 89.0381V86.6426H105.472V95ZM104.581 92.2607V92.0728C104.581 91.2384 104.441 90.644 104.162 90.2896C103.893 89.9351 103.451 89.7578 102.835 89.7578C102.312 89.7578 101.911 89.9601 101.632 90.3647C101.356 90.7658 101.218 91.3405 101.218 92.0889C101.218 92.8372 101.356 93.403 101.632 93.7861C101.908 94.1693 102.312 94.3608 102.846 94.3608C103.454 94.3608 103.895 94.1961 104.167 93.8667C104.443 93.5337 104.581 92.9984 104.581 92.2607ZM107.239 94.4414C107.239 94.1979 107.293 94.0135 107.4 93.8882C107.511 93.7629 107.669 93.7002 107.873 93.7002C108.081 93.7002 108.242 93.7629 108.356 93.8882C108.475 94.0135 108.534 94.1943 108.534 94.4307C108.534 94.6634 108.475 94.8424 108.356 94.9678C108.242 95.0931 108.084 95.1558 107.884 95.1558C107.683 95.1558 107.526 95.0967 107.411 94.9785C107.297 94.8604 107.239 94.6813 107.239 94.4414ZM114.206 95H113.292V87.1475H114.206V95ZM119.013 89.0059C119.729 89.0059 120.264 89.1795 120.619 89.5269C120.973 89.8742 121.15 90.4185 121.15 91.1597V95H120.259V91.1919C120.259 90.7085 120.148 90.3504 119.926 90.1177C119.707 89.8849 119.367 89.7686 118.905 89.7686C118.286 89.7686 117.833 89.9351 117.546 90.2681C117.264 90.6011 117.122 91.1489 117.122 91.9116V95H116.23V89.1133H116.956L117.101 89.9189H117.144C117.326 89.6289 117.58 89.4051 117.906 89.2476C118.236 89.0864 118.604 89.0059 119.013 89.0059ZM123.943 89.1133H125.651V89.8062H123.943V93.2705C123.943 93.6214 124.026 93.8936 124.19 94.0869C124.359 94.2767 124.588 94.3716 124.878 94.3716C125.168 94.3716 125.44 94.3358 125.694 94.2642V94.9517C125.608 94.9946 125.469 95.0304 125.275 95.0591C125.082 95.0913 124.91 95.1074 124.76 95.1074C123.621 95.1074 123.052 94.5076 123.052 93.3081V89.8062H122.208V89.3765L123.052 89.0059L123.428 87.749H123.943V89.1133ZM129.562 89.0059C129.819 89.0059 130.054 89.0273 130.265 89.0703L130.142 89.8975C129.898 89.8438 129.683 89.8169 129.497 89.8169C129.017 89.8169 128.609 90.0103 128.272 90.397C127.936 90.7801 127.768 91.2617 127.768 91.8418V95H126.876V89.1133H127.612L127.714 90.2036H127.757C127.975 89.8169 128.238 89.5215 128.546 89.3174C128.858 89.1097 129.196 89.0059 129.562 89.0059ZM131.033 92.0513C131.033 91.0916 131.271 90.3451 131.748 89.8115C132.227 89.2744 132.886 89.0059 133.724 89.0059C134.566 89.0059 135.226 89.2798 135.706 89.8276C136.197 90.3719 136.442 91.1185 136.442 92.0674C136.442 93.0163 136.2 93.7611 135.717 94.3018C135.233 94.8389 134.566 95.1074 133.713 95.1074C133.699 95.1074 133.685 95.1074 133.67 95.1074C132.893 95.1074 132.26 94.8317 131.769 94.2803C131.278 93.7288 131.033 93.0109 131.033 92.1265C131.033 92.1014 131.033 92.0763 131.033 92.0513ZM133.724 89.7686C132.546 89.7686 131.957 90.5295 131.957 92.0513C131.957 92.8032 132.107 93.3761 132.408 93.77C132.713 94.1639 133.155 94.3608 133.735 94.3608C134.319 94.3608 134.761 94.1657 135.062 93.7754C135.366 93.3815 135.518 92.8086 135.518 92.0566C135.518 91.3047 135.366 90.7354 135.062 90.3486C134.761 89.9619 134.315 89.7686 133.724 89.7686ZM142.866 95H142.141L142.022 94.2104H141.974C141.559 94.8084 140.954 95.1074 140.159 95.1074C139.367 95.1074 138.757 94.8442 138.327 94.3179C137.901 93.7879 137.688 93.0396 137.688 92.0728C137.688 91.1024 137.903 90.3486 138.333 89.8115C138.762 89.2744 139.367 89.0059 140.148 89.0059C140.932 89.0059 141.537 89.2959 141.963 89.876H142.033L141.996 89.4517L141.974 89.0381V86.6426H142.866V95ZM141.974 92.2607V92.0728C141.974 91.2384 141.834 90.644 141.555 90.2896C141.287 89.9351 140.844 89.7578 140.229 89.7578C139.706 89.7578 139.305 89.9601 139.025 90.3647C138.75 90.7658 138.612 91.3405 138.612 92.0889C138.612 92.8372 138.75 93.403 139.025 93.7861C139.301 94.1693 139.706 94.3608 140.239 94.3608C140.848 94.3608 141.288 94.1961 141.561 93.8667C141.836 93.5337 141.974 92.9984 141.974 92.2607ZM149.623 95H148.887L148.758 94.2104H148.709C148.527 94.5005 148.274 94.7225 147.952 94.8765C147.63 95.0304 147.259 95.1074 146.84 95.1074C146.113 95.1074 145.575 94.9373 145.224 94.5972C144.873 94.2534 144.697 93.7091 144.697 92.9644V89.1133H145.6V92.9321C145.6 93.4155 145.709 93.7754 145.927 94.0117C146.149 94.2445 146.491 94.3608 146.953 94.3608C147.569 94.3608 148.018 94.1925 148.301 93.856C148.588 93.5158 148.731 92.9661 148.731 92.207V89.1133H149.623V95ZM153.871 95.1074C153.019 95.1074 152.358 94.846 151.889 94.3232C151.424 93.8005 151.191 93.0521 151.191 92.0781C151.191 91.1042 151.427 90.3486 151.9 89.8115C152.376 89.2744 153.053 89.0059 153.93 89.0059C154.202 89.0059 154.478 89.0363 154.757 89.0972C155.04 89.1545 155.269 89.2261 155.445 89.312L155.171 90.0693C154.97 89.9906 154.759 89.9261 154.537 89.876C154.315 89.8258 154.106 89.8008 153.909 89.8008C152.713 89.8008 152.115 90.5617 152.115 92.0835C152.115 92.8104 152.262 93.3672 152.555 93.7539C152.849 94.137 153.28 94.3286 153.85 94.3286C154.337 94.3286 154.84 94.223 155.359 94.0117V94.8013C154.958 95.0054 154.462 95.1074 153.871 95.1074ZM159.237 95.1074C158.367 95.1074 157.679 94.8424 157.174 94.3125C156.673 93.779 156.422 93.0396 156.422 92.0942C156.422 91.1489 156.655 90.3988 157.121 89.8438C157.59 89.2852 158.206 89.0059 158.968 89.0059C159.735 89.0059 160.331 89.2511 160.757 89.7417C161.187 90.2179 161.401 90.8553 161.401 91.6538V92.2178H157.346C157.364 92.9053 157.538 93.4299 157.867 93.7915C158.197 94.1496 158.671 94.3286 159.291 94.3286C159.91 94.3286 160.528 94.1961 161.144 93.9312V94.7261C160.832 94.8621 160.533 94.9588 160.247 95.0161C159.964 95.077 159.627 95.1074 159.237 95.1074ZM160.445 91.4927C160.445 90.9341 160.32 90.5062 160.069 90.209C159.819 89.9082 159.459 89.7578 158.99 89.7578C158.524 89.7578 158.15 89.91 157.867 90.2144C157.584 90.5187 157.418 90.9448 157.368 91.4927H160.445ZM163.818 95H162.927V86.6426H163.818V95ZM165.376 92.0513C165.376 91.0916 165.614 90.3451 166.09 89.8115C166.57 89.2744 167.229 89.0059 168.067 89.0059C168.908 89.0059 169.569 89.2798 170.049 89.8276C170.539 90.3719 170.785 91.1185 170.785 92.0674C170.785 93.0163 170.543 93.7611 170.06 94.3018C169.576 94.8389 168.908 95.1074 168.056 95.1074C168.042 95.1074 168.028 95.1074 168.013 95.1074C167.236 95.1074 166.602 94.8317 166.112 94.2803C165.621 93.7288 165.376 93.0109 165.376 92.1265C165.376 92.1014 165.376 92.0763 165.376 92.0513ZM168.067 89.7686C166.889 89.7686 166.3 90.5295 166.3 92.0513C166.3 92.8032 166.45 93.3761 166.751 93.77C167.055 94.1639 167.498 94.3608 168.078 94.3608C168.661 94.3608 169.104 94.1657 169.404 93.7754C169.709 93.3815 169.861 92.8086 169.861 92.0566C169.861 91.3047 169.709 90.7354 169.404 90.3486C169.104 89.9619 168.658 89.7686 168.067 89.7686ZM175.436 89.5215C176.052 89.1849 176.714 89.0166 177.423 89.0166C178.132 89.0166 178.653 89.1742 178.986 89.4893C179.323 89.8008 179.491 90.2985 179.491 90.9824V95H178.836L178.659 94.1621H178.616C178.322 94.5309 178.028 94.7816 177.735 94.9141C177.445 95.043 177.081 95.1074 176.645 95.1074C176.061 95.1074 175.603 94.957 175.27 94.6562C174.937 94.3519 174.77 93.924 174.77 93.3726C174.77 92.1873 175.722 91.5643 177.627 91.5034L178.626 91.4712V91.106C178.626 90.6405 178.526 90.3003 178.326 90.0854C178.129 89.867 177.796 89.7578 177.327 89.7578C176.858 89.7578 176.319 89.9064 175.71 90.2036L175.436 89.5215ZM175.71 93.3833C175.71 93.702 175.807 93.9473 176 94.1191C176.193 94.2874 176.467 94.3716 176.822 94.3716C177.377 94.3716 177.812 94.2194 178.127 93.915C178.446 93.6071 178.605 93.181 178.605 92.6367V92.105L177.713 92.1426C177.004 92.1676 176.492 92.2786 176.177 92.4756C175.866 92.6689 175.71 92.9715 175.71 93.3833ZM186.549 95.1074C185.697 95.1074 185.036 94.846 184.567 94.3232C184.101 93.8005 183.869 93.0521 183.869 92.0781C183.869 91.1042 184.105 90.3486 184.578 89.8115C185.054 89.2744 185.731 89.0059 186.608 89.0059C186.88 89.0059 187.156 89.0363 187.435 89.0972C187.718 89.1545 187.947 89.2261 188.123 89.312L187.849 90.0693C187.648 89.9906 187.437 89.9261 187.215 89.876C186.993 89.8258 186.783 89.8008 186.586 89.8008C185.39 89.8008 184.792 90.5617 184.792 92.0835C184.792 92.8104 184.939 93.3672 185.233 93.7539C185.527 94.137 185.958 94.3286 186.527 94.3286C187.014 94.3286 187.517 94.223 188.037 94.0117V94.8013C187.636 95.0054 187.14 95.1074 186.549 95.1074ZM189.095 92.0513C189.095 91.0916 189.333 90.3451 189.809 89.8115C190.289 89.2744 190.948 89.0059 191.786 89.0059C192.627 89.0059 193.288 89.2798 193.768 89.8276C194.258 90.3719 194.503 91.1185 194.503 92.0674C194.503 93.0163 194.262 93.7611 193.778 94.3018C193.295 94.8389 192.627 95.1074 191.775 95.1074C191.761 95.1074 191.746 95.1074 191.732 95.1074C190.955 95.1074 190.321 94.8317 189.831 94.2803C189.34 93.7288 189.095 93.0109 189.095 92.1265C189.095 92.1014 189.095 92.0763 189.095 92.0513ZM191.786 89.7686C190.608 89.7686 190.019 90.5295 190.019 92.0513C190.019 92.8032 190.169 93.3761 190.47 93.77C190.774 94.1639 191.216 94.3608 191.796 94.3608C192.38 94.3608 192.822 94.1657 193.123 93.7754C193.427 93.3815 193.58 92.8086 193.58 92.0566C193.58 91.3047 193.427 90.7354 193.123 90.3486C192.822 89.9619 192.376 89.7686 191.786 89.7686ZM198.859 89.0059C199.576 89.0059 200.111 89.1795 200.465 89.5269C200.82 89.8742 200.997 90.4185 200.997 91.1597V95H200.105V91.1919C200.105 90.7085 199.994 90.3504 199.772 90.1177C199.554 89.8849 199.214 89.7686 198.752 89.7686C198.132 89.7686 197.68 89.9351 197.393 90.2681C197.11 90.6011 196.969 91.1489 196.969 91.9116V95H196.077V89.1133H196.802L196.947 89.9189H196.99C197.173 89.6289 197.427 89.4051 197.753 89.2476C198.082 89.0864 198.451 89.0059 198.859 89.0059ZM203.79 89.1133H205.498V89.8062H203.79V93.2705C203.79 93.6214 203.872 93.8936 204.037 94.0869C204.205 94.2767 204.435 94.3716 204.725 94.3716C205.015 94.3716 205.287 94.3358 205.541 94.2642V94.9517C205.455 94.9946 205.315 95.0304 205.122 95.0591C204.929 95.0913 204.757 95.1074 204.606 95.1074C203.468 95.1074 202.898 94.5076 202.898 93.3081V89.8062H202.055V89.3765L202.898 89.0059L203.274 87.749H203.79V89.1133ZM206.647 87.5181C206.647 87.3211 206.696 87.1743 206.792 87.0776C206.889 86.9774 207.014 86.9272 207.168 86.9272C207.322 86.9272 207.45 86.9774 207.55 87.0776C207.65 87.1779 207.7 87.3247 207.7 87.5181C207.7 87.7114 207.65 87.86 207.55 87.9639C207.45 88.0641 207.322 88.1143 207.168 88.1143C207.014 88.1143 206.889 88.0641 206.792 87.9639C206.696 87.86 206.647 87.7114 206.647 87.5181ZM207.614 95H206.723V89.1133H207.614V95ZM212.287 89.0059C213.003 89.0059 213.539 89.1795 213.893 89.5269C214.248 89.8742 214.425 90.4185 214.425 91.1597V95H213.533V91.1919C213.533 90.7085 213.422 90.3504 213.2 90.1177C212.982 89.8849 212.642 89.7686 212.18 89.7686C211.56 89.7686 211.107 89.9351 210.821 90.2681C210.538 90.6011 210.396 91.1489 210.396 91.9116V95H209.505V89.1133H210.23L210.375 89.9189H210.418C210.601 89.6289 210.855 89.4051 211.181 89.2476C211.51 89.0864 211.879 89.0059 212.287 89.0059ZM221.123 95H220.387L220.258 94.2104H220.209C220.027 94.5005 219.774 94.7225 219.452 94.8765C219.13 95.0304 218.759 95.1074 218.34 95.1074C217.613 95.1074 217.075 94.9373 216.724 94.5972C216.373 94.2534 216.197 93.7091 216.197 92.9644V89.1133H217.1V92.9321C217.1 93.4155 217.209 93.7754 217.427 94.0117C217.649 94.2445 217.991 94.3608 218.453 94.3608C219.069 94.3608 219.518 94.1925 219.801 93.856C220.088 93.5158 220.231 92.9661 220.231 92.207V89.1133H221.123V95ZM223.239 89.5215C223.855 89.1849 224.517 89.0166 225.226 89.0166C225.935 89.0166 226.456 89.1742 226.789 89.4893C227.126 89.8008 227.294 90.2985 227.294 90.9824V95H226.639L226.461 94.1621H226.418C226.125 94.5309 225.831 94.7816 225.538 94.9141C225.248 95.043 224.884 95.1074 224.447 95.1074C223.864 95.1074 223.405 94.957 223.072 94.6562C222.739 94.3519 222.573 93.924 222.573 93.3726C222.573 92.1873 223.525 91.5643 225.43 91.5034L226.429 91.4712V91.106C226.429 90.6405 226.329 90.3003 226.128 90.0854C225.931 89.867 225.598 89.7578 225.129 89.7578C224.66 89.7578 224.121 89.9064 223.513 90.2036L223.239 89.5215ZM223.513 93.3833C223.513 93.702 223.609 93.9473 223.803 94.1191C223.996 94.2874 224.27 94.3716 224.625 94.3716C225.18 94.3716 225.615 94.2194 225.93 93.915C226.248 93.6071 226.408 93.181 226.408 92.6367V92.105L225.516 92.1426C224.807 92.1676 224.295 92.2786 223.98 92.4756C223.668 92.6689 223.513 92.9715 223.513 93.3833ZM231.494 95.1074C230.642 95.1074 229.981 94.846 229.512 94.3232C229.047 93.8005 228.814 93.0521 228.814 92.0781C228.814 91.1042 229.05 90.3486 229.523 89.8115C229.999 89.2744 230.676 89.0059 231.553 89.0059C231.825 89.0059 232.101 89.0363 232.38 89.0972C232.663 89.1545 232.892 89.2261 233.068 89.312L232.794 90.0693C232.593 89.9906 232.382 89.9261 232.16 89.876C231.938 89.8258 231.729 89.8008 231.532 89.8008C230.336 89.8008 229.738 90.5617 229.738 92.0835C229.738 92.8104 229.885 93.3672 230.178 93.7539C230.472 94.137 230.903 94.3286 231.473 94.3286C231.96 94.3286 232.463 94.223 232.982 94.0117V94.8013C232.581 95.0054 232.085 95.1074 231.494 95.1074ZM234.298 87.5181C234.298 87.3211 234.346 87.1743 234.443 87.0776C234.54 86.9774 234.665 86.9272 234.819 86.9272C234.973 86.9272 235.1 86.9774 235.2 87.0776C235.3 87.1779 235.351 87.3247 235.351 87.5181C235.351 87.7114 235.3 87.86 235.2 87.9639C235.1 88.0641 234.973 88.1143 234.819 88.1143C234.665 88.1143 234.54 88.0641 234.443 87.9639C234.346 87.86 234.298 87.7114 234.298 87.5181ZM235.265 95H234.373V89.1133H235.265V95ZM236.822 92.0513C236.822 91.0916 237.06 90.3451 237.537 89.8115C238.016 89.2744 238.675 89.0059 239.513 89.0059C240.355 89.0059 241.015 89.2798 241.495 89.8276C241.986 90.3719 242.231 91.1185 242.231 92.0674C242.231 93.0163 241.989 93.7611 241.506 94.3018C241.022 94.8389 240.355 95.1074 239.502 95.1074C239.488 95.1074 239.474 95.1074 239.459 95.1074C238.682 95.1074 238.049 94.8317 237.558 94.2803C237.068 93.7288 236.822 93.0109 236.822 92.1265C236.822 92.1014 236.822 92.0763 236.822 92.0513ZM239.513 89.7686C238.335 89.7686 237.746 90.5295 237.746 92.0513C237.746 92.8032 237.896 93.3761 238.197 93.77C238.502 94.1639 238.944 94.3608 239.524 94.3608C240.108 94.3608 240.55 94.1657 240.851 93.7754C241.155 93.3815 241.307 92.8086 241.307 92.0566C241.307 91.3047 241.155 90.7354 240.851 90.3486C240.55 89.9619 240.104 89.7686 239.513 89.7686ZM246.587 89.0059C247.303 89.0059 247.838 89.1795 248.193 89.5269C248.547 89.8742 248.725 90.4185 248.725 91.1597V95H247.833V91.1919C247.833 90.7085 247.722 90.3504 247.5 90.1177C247.282 89.8849 246.941 89.7686 246.479 89.7686C245.86 89.7686 245.407 89.9351 245.121 90.2681C244.838 90.6011 244.696 91.1489 244.696 91.9116V95H243.805V89.1133H244.53L244.675 89.9189H244.718C244.9 89.6289 245.155 89.4051 245.48 89.2476C245.81 89.0864 246.179 89.0059 246.587 89.0059ZM254.311 89.9189C254.74 89.3102 255.349 89.0059 256.137 89.0059C256.928 89.0059 257.537 89.2726 257.963 89.8062C258.389 90.3397 258.602 91.0898 258.602 92.0566C258.602 93.0234 258.385 93.7736 257.952 94.3071C257.522 94.8407 256.914 95.1074 256.126 95.1074C255.338 95.1074 254.733 94.8192 254.311 94.2427H254.246C254.289 94.5864 254.311 94.9123 254.311 95.2202V97.6426H253.419V89.1133H254.144L254.268 89.9189H254.311ZM254.311 92.0513C254.311 92.8748 254.448 93.4674 254.724 93.8291C255 94.1836 255.442 94.3608 256.051 94.3608C256.563 94.3608 256.96 94.1567 257.243 93.7485C257.53 93.3368 257.673 92.7674 257.673 92.0405C257.673 91.3101 257.53 90.7497 257.243 90.3594C256.96 89.9655 256.556 89.7686 256.029 89.7686C255.424 89.7686 254.987 89.9351 254.719 90.2681C254.45 90.6011 254.314 91.1292 254.311 91.8525V92.0513ZM260.385 89.5215C261.001 89.1849 261.664 89.0166 262.373 89.0166C263.082 89.0166 263.603 89.1742 263.936 89.4893C264.272 89.8008 264.44 90.2985 264.44 90.9824V95H263.785L263.608 94.1621H263.565C263.271 94.5309 262.978 94.7816 262.684 94.9141C262.394 95.043 262.031 95.1074 261.594 95.1074C261.01 95.1074 260.552 94.957 260.219 94.6562C259.886 94.3519 259.719 93.924 259.719 93.3726C259.719 92.1873 260.672 91.5643 262.577 91.5034L263.576 91.4712V91.106C263.576 90.6405 263.475 90.3003 263.275 90.0854C263.078 89.867 262.745 89.7578 262.276 89.7578C261.807 89.7578 261.268 89.9064 260.659 90.2036L260.385 89.5215ZM260.659 93.3833C260.659 93.702 260.756 93.9473 260.949 94.1191C261.143 94.2874 261.417 94.3716 261.771 94.3716C262.326 94.3716 262.761 94.2194 263.076 93.915C263.395 93.6071 263.554 93.181 263.554 92.6367V92.105L262.663 92.1426C261.954 92.1676 261.442 92.2786 261.126 92.4756C260.815 92.6689 260.659 92.9715 260.659 93.3833ZM268.974 89.0059C269.231 89.0059 269.466 89.0273 269.677 89.0703L269.554 89.8975C269.31 89.8438 269.095 89.8169 268.909 89.8169C268.429 89.8169 268.021 90.0103 267.685 90.397C267.348 90.7801 267.18 91.2617 267.18 91.8418V95H266.288V89.1133H267.024L267.126 90.2036H267.169C267.387 89.8169 267.651 89.5215 267.958 89.3174C268.27 89.1097 268.608 89.0059 268.974 89.0059ZM270.999 89.5215C271.614 89.1849 272.277 89.0166 272.986 89.0166C273.695 89.0166 274.216 89.1742 274.549 89.4893C274.885 89.8008 275.054 90.2985 275.054 90.9824V95H274.398L274.221 94.1621H274.178C273.885 94.5309 273.591 94.7816 273.297 94.9141C273.007 95.043 272.644 95.1074 272.207 95.1074C271.623 95.1074 271.165 94.957 270.832 94.6562C270.499 94.3519 270.333 93.924 270.333 93.3726C270.333 92.1873 271.285 91.5643 273.19 91.5034L274.189 91.4712V91.106C274.189 90.6405 274.089 90.3003 273.888 90.0854C273.691 89.867 273.358 89.7578 272.889 89.7578C272.42 89.7578 271.881 89.9064 271.272 90.2036L270.999 89.5215ZM271.272 93.3833C271.272 93.702 271.369 93.9473 271.562 94.1191C271.756 94.2874 272.03 94.3716 272.384 94.3716C272.939 94.3716 273.374 94.2194 273.689 93.915C274.008 93.6071 274.167 93.181 274.167 92.6367V92.105L273.276 92.1426C272.567 92.1676 272.055 92.2786 271.74 92.4756C271.428 92.6689 271.272 92.9715 271.272 93.3833ZM1.16553 104.521C1.78141 104.185 2.44385 104.017 3.15283 104.017C3.86182 104.017 4.38281 104.174 4.71582 104.489C5.05241 104.801 5.2207 105.299 5.2207 105.982V110H4.56543L4.38818 109.162H4.34521C4.0516 109.531 3.75798 109.782 3.46436 109.914C3.17432 110.043 2.81087 110.107 2.37402 110.107C1.79036 110.107 1.33203 109.957 0.999023 109.656C0.666016 109.352 0.499512 108.924 0.499512 108.373C0.499512 107.187 1.45199 106.564 3.35693 106.503L4.35596 106.471V106.106C4.35596 105.64 4.2557 105.3 4.05518 105.085C3.85824 104.867 3.52523 104.758 3.05615 104.758C2.58708 104.758 2.04818 104.906 1.43945 105.204L1.16553 104.521ZM1.43945 108.383C1.43945 108.702 1.53613 108.947 1.72949 109.119C1.92285 109.287 2.19678 109.372 2.55127 109.372C3.10628 109.372 3.54134 109.219 3.85645 108.915C4.17513 108.607 4.33447 108.181 4.33447 107.637V107.105L3.44287 107.143C2.73389 107.168 2.22184 107.279 1.90674 107.476C1.59521 107.669 1.43945 107.972 1.43945 108.383ZM9.4209 110.107C8.56868 110.107 7.90804 109.846 7.43896 109.323C6.97347 108.8 6.74072 108.052 6.74072 107.078C6.74072 106.104 6.97705 105.349 7.44971 104.812C7.92594 104.274 8.6027 104.006 9.47998 104.006C9.75212 104.006 10.0278 104.036 10.3071 104.097C10.59 104.154 10.8192 104.226 10.9946 104.312L10.7207 105.069C10.5202 104.991 10.3089 104.926 10.0869 104.876C9.86491 104.826 9.65544 104.801 9.4585 104.801C8.26253 104.801 7.66455 105.562 7.66455 107.083C7.66455 107.81 7.81136 108.367 8.10498 108.754C8.3986 109.137 8.83008 109.329 9.39941 109.329C9.88639 109.329 10.3895 109.223 10.9087 109.012V109.801C10.5076 110.005 10.0117 110.107 9.4209 110.107ZM14.6523 110.107C13.8001 110.107 13.1395 109.846 12.6704 109.323C12.2049 108.8 11.9722 108.052 11.9722 107.078C11.9722 106.104 12.2085 105.349 12.6812 104.812C13.1574 104.274 13.8341 104.006 14.7114 104.006C14.9836 104.006 15.2593 104.036 15.5386 104.097C15.8215 104.154 16.0506 104.226 16.2261 104.312L15.9521 105.069C15.7516 104.991 15.5404 104.926 15.3184 104.876C15.0964 104.826 14.8869 104.801 14.6899 104.801C13.494 104.801 12.896 105.562 12.896 107.083C12.896 107.81 13.0428 108.367 13.3364 108.754C13.63 109.137 14.0615 109.329 14.6309 109.329C15.1178 109.329 15.6209 109.223 16.1401 109.012V109.801C15.7391 110.005 15.2432 110.107 14.6523 110.107ZM20.0181 110.107C19.1479 110.107 18.4604 109.842 17.9556 109.312C17.4543 108.779 17.2036 108.04 17.2036 107.094C17.2036 106.149 17.4364 105.399 17.9019 104.844C18.3709 104.285 18.9868 104.006 19.7495 104.006C20.5158 104.006 21.112 104.251 21.5381 104.742C21.9678 105.218 22.1826 105.855 22.1826 106.654V107.218H18.1274C18.1453 107.905 18.319 108.43 18.6484 108.792C18.9779 109.15 19.4523 109.329 20.0718 109.329C20.6912 109.329 21.3089 109.196 21.9248 108.931V109.726C21.6133 109.862 21.3143 109.959 21.0278 110.016C20.745 110.077 20.4084 110.107 20.0181 110.107ZM21.2266 106.493C21.2266 105.934 21.1012 105.506 20.8506 105.209C20.5999 104.908 20.2401 104.758 19.771 104.758C19.3055 104.758 18.9313 104.91 18.6484 105.214C18.3656 105.519 18.1991 105.945 18.1489 106.493H21.2266ZM28.5581 110H27.833L27.7148 109.21H27.6665C27.2511 109.808 26.646 110.107 25.8511 110.107C25.0597 110.107 24.4492 109.844 24.0195 109.318C23.5934 108.788 23.3804 108.04 23.3804 107.073C23.3804 106.102 23.5952 105.349 24.0249 104.812C24.4546 104.274 25.0597 104.006 25.8403 104.006C26.6245 104.006 27.2297 104.296 27.6558 104.876H27.7256L27.688 104.452L27.6665 104.038V101.643H28.5581V110ZM27.6665 107.261V107.073C27.6665 106.238 27.5269 105.644 27.2476 105.29C26.979 104.935 26.5368 104.758 25.9209 104.758C25.3981 104.758 24.9971 104.96 24.7178 105.365C24.4421 105.766 24.3042 106.34 24.3042 107.089C24.3042 107.837 24.4421 108.403 24.7178 108.786C24.9935 109.169 25.3981 109.361 25.9316 109.361C26.5404 109.361 26.9808 109.196 27.2529 108.867C27.5286 108.534 27.6665 107.998 27.6665 107.261ZM32.9409 110.107C32.0708 110.107 31.3833 109.842 30.8784 109.312C30.3771 108.779 30.1265 108.04 30.1265 107.094C30.1265 106.149 30.3592 105.399 30.8247 104.844C31.2938 104.285 31.9097 104.006 32.6724 104.006C33.4386 104.006 34.0348 104.251 34.4609 104.742C34.8906 105.218 35.1055 105.855 35.1055 106.654V107.218H31.0503C31.0682 107.905 31.2419 108.43 31.5713 108.792C31.9007 109.15 32.3752 109.329 32.9946 109.329C33.6141 109.329 34.2318 109.196 34.8477 108.931V109.726C34.5361 109.862 34.2371 109.959 33.9507 110.016C33.6678 110.077 33.3312 110.107 32.9409 110.107ZM34.1494 106.493C34.1494 105.934 34.0241 105.506 33.7734 105.209C33.5228 104.908 33.1629 104.758 32.6938 104.758C32.2284 104.758 31.8542 104.91 31.5713 105.214C31.2884 105.519 31.1219 105.945 31.0718 106.493H34.1494ZM39.3164 104.006C39.5742 104.006 39.8088 104.027 40.02 104.07L39.8965 104.897C39.653 104.844 39.4382 104.817 39.252 104.817C38.7721 104.817 38.3639 105.01 38.0273 105.397C37.6908 105.78 37.5225 106.262 37.5225 106.842V110H36.6309V104.113H37.3667L37.4688 105.204H37.5117C37.7301 104.817 37.9933 104.521 38.3013 104.317C38.6128 104.11 38.9512 104.006 39.3164 104.006ZM40.9922 109.441C40.9922 109.198 41.0459 109.014 41.1533 108.888C41.2643 108.763 41.4219 108.7 41.626 108.7C41.8337 108.7 41.9948 108.763 42.1094 108.888C42.2275 109.014 42.2866 109.194 42.2866 109.431C42.2866 109.663 42.2275 109.842 42.1094 109.968C41.9948 110.093 41.8372 110.156 41.6367 110.156C41.4362 110.156 41.2786 110.097 41.1641 109.979C41.0495 109.86 40.9922 109.681 40.9922 109.441Z" fill="#1E1E1E"/>
<line x1="1" y1="-4.37114e-08" x2="1" y2="17" stroke="#0B7AD0" stroke-width="2"/>
</svg>
